<svg width="2000" height="314" viewBox="0 0 2000 314" fill="none" xmlns="http://www.w3.org/2000/svg">
<g clip-path="url(#clip0_72_1325)">
<path d="M1264.55 121.443H1010.58V191.752H1264.55V121.443Z" fill="#1D1D1D"/>
<path d="M563.492 237.559L585.185 306.27H665.608L568.254 6.92437H448.677L351.852 306.27H432.275L453.968 237.559H563.492ZM476.72 169.914L508.995 70.8417L541.27 169.914H476.72ZM1482.01 0C1391.53 0 1317.99 70.309 1317.99 156.597C1317.99 242.886 1391.53 313.195 1482.01 313.195C1572.49 313.195 1646.03 242.886 1646.03 156.597C1646.03 70.309 1572.49 0 1482.01 0ZM1482.01 246.082C1432.8 246.082 1393.12 206.133 1393.12 156.597C1393.12 107.061 1432.8 67.1132 1482.01 67.1132C1531.22 67.1132 1570.9 107.061 1570.9 156.597C1570.37 206.133 1530.69 246.082 1482.01 246.082ZM716.931 6.92437H792.593V235.961H957.143V305.738H716.931V6.92437ZM1010.05 6.92437H1264.55V76.7008H1010.05V6.92437ZM1010.05 236.494H1264.55V306.27H1010.05V236.494ZM1775.13 306.27H1699.47V6.92437H1775.13L1924.34 194.415V6.92437H2000V306.27H1924.34L1775.13 118.78V306.27ZM224.868 6.92437H300.529V306.27H224.868V191.752H75.6614V306.27H0V6.92437H75.6614V121.443H224.868V6.92437Z" fill="#1D1D1D"/>
</g>
<defs>
<clipPath id="clip0_72_1325">
<rect width="2000" height="313.195" fill="white"/>
</clipPath>
</defs>
</svg>
