<svg width="2000" height="788" viewBox="0 0 2000 788" fill="none" xmlns="http://www.w3.org/2000/svg">
<g clip-path="url(#clip0_72_5007)">
<path d="M755.998 176.845C770.484 163.241 789.497 159.614 797.645 168.683C805.794 177.752 801.267 196.796 786.781 210.4C772.295 224.003 753.281 227.631 745.133 218.562C736.079 208.586 740.606 190.448 755.998 176.845Z" fill="#1D1D1D"/>
<path d="M755.998 176.845C770.484 163.241 789.497 159.614 797.645 168.683C805.794 177.752 801.267 196.796 786.781 210.4C772.295 224.003 753.281 227.631 745.133 218.562C736.079 208.586 740.606 190.448 755.998 176.845Z" fill="#1D1D1D"/>
<path d="M2000 467.958H0V491.537H2000V467.958Z" fill="#1D1D1D"/>
<path d="M1141.69 257.558C1134.45 249.396 1122.68 256.651 1114.53 260.279C1081.94 279.324 1052.97 306.531 1026.71 336.458C1013.13 352.782 997.737 369.106 991.399 389.058C990.493 391.779 993.21 396.313 995.02 398.127C1003.17 400.848 1010.41 396.313 1017.66 393.593C1060.21 372.734 1099.14 331.017 1129.02 292.02C1135.36 280.231 1148.03 267.534 1141.69 257.558ZM396.559 387.244C373.925 378.175 350.385 370.013 325.939 366.386C309.642 364.572 290.629 363.665 277.954 375.455C275.238 378.175 275.238 380.896 276.143 382.71C281.575 392.686 293.345 393.593 303.305 395.406C334.993 399.941 366.682 395.406 396.559 387.244ZM811.227 58.0413L808.511 54.4137C795.835 47.1585 781.349 55.3206 769.579 60.762C709.823 96.1309 650.068 178.658 612.042 234.886C621.095 233.072 658.216 221.282 683.567 204.958C727.931 180.472 784.971 126.058 808.511 79.8068C811.227 73.4585 814.848 65.2964 811.227 58.0413ZM633.771 357.317C589.407 392.686 538.705 412.637 479.855 406.289C459.937 403.568 440.923 399.034 421.91 393.593C382.073 405.382 334.993 412.637 291.535 403.568C280.67 400.848 266.184 394.5 263.468 381.803C262.562 370.013 272.521 360.037 282.481 355.503C333.182 331.017 396.559 350.062 445.45 365.479C465.369 350.969 481.666 331.924 497.057 312.879L528.746 272.976C534.178 265.72 545.043 250.303 545.043 250.303C493.436 247.582 436.397 242.141 404.708 196.796C389.316 172.31 391.127 137.848 406.519 113.362C438.207 67.1102 490.72 52.5999 543.232 49.8792C575.826 48.9723 606.609 55.3206 635.582 66.2033C635.582 66.2033 634.676 71.6447 634.676 74.3654C593.028 63.4826 542.327 60.762 501.584 74.3654C467.18 84.3412 427.343 115.176 422.816 154.172C419.194 179.565 431.87 204.051 454.504 217.655C482.571 234.886 516.976 238.513 551.381 239.42C597.555 182.286 660.027 106.107 720.688 67.1102C745.133 52.5999 770.484 38.0896 800.362 38.9965C807.605 38.9965 816.659 42.624 822.091 50.7861C832.051 65.2964 823.902 83.4343 816.659 97.0378C785.876 151.452 721.593 204.051 669.986 228.538C648.257 237.607 626.528 244.862 603.893 250.303C578.542 289.3 558.624 317.413 521.503 344.62C505.206 356.41 487.098 366.386 468.99 373.641C504.301 388.151 554.097 389.058 588.502 371.827C616.569 358.224 643.73 337.365 664.554 311.065L717.972 243.955H773.2L659.122 389.058C657.311 391.779 656.406 394.5 657.311 396.313C661.838 404.475 676.324 396.313 676.324 396.313C676.324 396.313 691.716 390.872 746.944 340.086C765.052 323.762 780.444 308.344 794.93 290.207L832.051 243.048H883.658C870.982 259.372 860.118 274.789 849.253 290.207C875.509 268.441 902.671 246.676 935.265 240.327C947.94 238.513 959.71 242.141 966.953 253.024C976.007 267.534 970.575 286.579 961.521 299.275L950.656 312.879L886.374 388.151C884.563 390.872 884.563 392.686 886.374 394.5C890.901 398.127 898.144 392.686 902.671 390.872C927.116 379.082 947.035 364.572 966.953 344.62C972.386 338.272 977.818 327.389 983.25 321.041C1016.75 279.324 1061.11 250.303 1110.91 241.234C1124.49 239.42 1141.69 237.607 1151.65 247.582C1154.37 251.21 1155.27 255.744 1155.27 261.186L1163.42 252.117L1227.7 170.496L1289.27 90.6895H1341.78L1188.77 288.393L1110.91 389.058C1110 390.872 1109.1 392.686 1110 394.5C1111.82 399.034 1119.96 396.313 1124.49 395.406C1157.08 385.431 1185.15 361.851 1208.69 333.738L1291.99 227.631H1259.39L1271.16 214.027H1302.85C1302.85 214.027 1397.01 91.5964 1398.82 89.7826H1451.34L1356.27 213.12H1434.13L1421.46 226.724H1344.5L1219.56 387.244C1217.75 389.965 1217.75 391.779 1217.75 393.593C1219.56 397.22 1221.37 398.127 1225.89 398.127C1243.1 398.127 1256.68 386.337 1272.07 374.548C1288.37 361.851 1315.53 334.644 1315.53 334.644L1323.68 343.713C1296.51 368.2 1269.35 397.22 1240.38 407.196C1231.33 410.824 1213.22 414.451 1199.64 406.289C1186.06 398.127 1184.25 384.524 1194.21 364.572H1193.3C1164.33 387.244 1136.26 414.451 1096.42 408.103C1088.28 406.289 1081.94 399.941 1078.32 392.686C1074.69 384.524 1074.69 374.548 1077.41 366.386C1070.17 371.827 1062.02 378.175 1054.78 383.617C1032.14 399.034 1004.98 418.986 976.007 406.289C964.237 399.941 959.71 385.431 960.616 372.734C960.616 370.013 961.521 366.386 961.521 363.665C939.792 380.896 918.968 395.406 894.522 405.382C884.563 409.01 859.212 414.451 846.537 401.755C840.199 394.5 839.294 387.244 842.01 375.455C845.631 360.944 877.32 327.389 877.32 327.389L938.886 257.558C938.886 257.558 941.602 254.838 938.886 251.21C936.17 246.676 928.927 250.303 925.306 252.117C895.428 264.813 862.834 292.02 823.902 330.11C800.362 351.875 758.714 404.475 758.714 404.475H706.202L746.039 353.689C745.133 351.875 743.323 354.596 743.323 354.596C743.323 354.596 703.486 394.5 676.324 405.382H675.419C665.459 409.01 640.109 414.451 627.433 401.755C621.095 394.5 620.19 387.244 622.906 375.455C626.528 363.665 633.771 357.317 633.771 357.317Z" fill="#1D1D1D"/>
<path d="M1475.78 130.593C1477.59 129.686 1479.4 128.779 1482.12 128.779C1488.46 131.5 1493.89 136.034 1500.23 139.662C1502.94 141.476 1505.66 142.383 1509.28 143.289C1514.71 144.196 1521.05 143.289 1524.67 139.662L1525.58 138.755C1530.1 143.289 1535.54 146.01 1541.87 148.731C1545.5 149.638 1549.12 150.545 1552.74 150.545V153.265C1569.94 153.265 1570.85 172.31 1570.85 172.31H1583.52V175.938H1607.06V172.31H1619.74C1619.74 172.31 1620.64 153.265 1637.85 153.265V150.545C1641.47 150.545 1644.18 149.638 1647.8 148.731C1654.14 146.01 1659.57 143.289 1664.1 138.755L1665.01 139.662C1668.63 143.289 1674.97 144.196 1680.4 143.289C1683.11 142.383 1685.83 140.569 1689.45 139.662C1695.79 136.034 1700.32 131.5 1707.56 128.779C1710.28 128.779 1712.09 128.779 1713.9 130.593L1714.8 131.5C1715.71 129.686 1714.8 127.872 1714.8 126.965C1713.9 119.71 1708.47 115.176 1701.22 113.362C1701.22 110.641 1700.32 107.014 1698.51 104.293C1696.7 100.665 1693.98 97.9447 1690.36 96.1309C1689.45 106.107 1684.02 115.176 1675.87 121.524C1675.87 117.896 1676.78 114.269 1674.97 110.641C1674.97 108.827 1673.16 108.827 1672.25 107.92C1667.72 105.2 1661.39 105.2 1655.95 107.92C1654.14 108.827 1654.14 112.455 1653.24 114.269C1651.43 121.524 1645.99 126.058 1639.66 128.779C1640.56 125.152 1640.56 122.431 1640.56 122.431C1640.56 122.431 1622.45 125.152 1612.49 120.617C1612.49 120.617 1610.68 137.848 1596.2 137.848C1581.71 137.848 1579.9 120.617 1579.9 120.617C1569.94 125.152 1551.83 122.431 1551.83 122.431C1551.83 122.431 1552.74 125.152 1552.74 128.779C1545.5 126.965 1540.06 121.524 1538.25 114.269C1537.35 112.455 1537.35 109.734 1535.54 107.92C1531.01 105.2 1524.67 106.107 1519.24 107.92C1518.33 108.827 1516.52 108.827 1516.52 110.641C1515.62 113.362 1515.62 117.896 1515.62 121.524C1508.38 116.083 1502.04 107.014 1501.13 96.1309C1497.51 97.0378 1494.79 100.665 1492.98 104.293C1492.08 107.014 1491.17 109.734 1490.27 113.362C1483.93 115.176 1477.59 119.71 1476.69 126.965C1476.69 128.779 1476.69 130.593 1476.69 131.5C1475.78 131.5 1475.78 130.593 1475.78 130.593ZM1691.26 106.107C1693.07 108.827 1693.98 111.548 1693.98 115.176C1693.98 116.083 1693.98 117.896 1693.98 118.803C1694.88 118.803 1695.79 118.803 1695.79 118.803C1699.41 118.803 1703.94 119.71 1705.75 123.338C1704.84 123.338 1704.84 123.338 1703.94 123.338C1701.22 123.338 1699.41 125.152 1696.7 126.965C1691.26 130.593 1685.83 136.034 1679.49 138.755C1678.59 137.848 1678.59 136.941 1678.59 136.034C1682.21 131.5 1687.64 128.779 1691.26 123.338C1691.26 122.431 1691.26 122.431 1691.26 121.524C1689.45 120.617 1677.68 132.407 1675.87 129.686C1674.97 128.779 1674.97 127.872 1674.97 127.872C1682.21 122.431 1688.55 115.176 1691.26 106.107ZM1636.03 143.289C1641.47 142.383 1646.9 139.662 1651.43 136.941C1652.33 136.034 1654.14 135.127 1653.24 133.314C1653.24 132.407 1652.33 133.314 1652.33 133.314C1645.09 136.941 1640.56 139.662 1636.94 139.662V135.127C1645.99 132.407 1653.24 127.872 1656.86 118.803C1657.76 116.989 1658.67 115.176 1658.67 113.362C1659.57 112.455 1659.57 112.455 1660.48 112.455C1663.2 113.362 1659.57 118.803 1658.67 122.431C1657.76 125.152 1654.14 128.779 1655.05 130.593C1657.76 131.5 1658.67 128.779 1659.57 127.872C1662.29 124.245 1664.1 119.71 1665.91 115.176C1666.82 114.269 1667.72 114.269 1668.63 116.083C1668.63 119.71 1666.82 123.338 1665.01 126.965C1659.57 138.755 1647.8 146.01 1635.13 147.824L1636.03 143.289ZM1607.06 146.01C1607.06 146.01 1612.49 147.824 1616.12 146.917C1613.4 145.103 1609.78 140.569 1609.78 135.127C1609.78 135.127 1615.21 138.755 1620.64 136.034C1615.21 132.407 1615.21 125.152 1615.21 125.152C1623.36 126.965 1628.79 126.058 1628.79 126.058C1628.79 126.058 1626.98 136.941 1626.98 148.731C1613.4 155.079 1613.4 167.776 1613.4 167.776H1605.25C1605.25 168.682 1605.25 163.241 1607.06 146.01ZM1593.48 140.569C1597.1 140.569 1599.82 144.196 1599.82 148.731C1599.82 153.265 1597.1 156.893 1593.48 156.893C1589.86 156.893 1587.14 153.265 1587.14 148.731C1587.14 144.196 1589.86 140.569 1593.48 140.569ZM1571.75 125.152C1571.75 125.152 1571.75 132.407 1566.32 136.034C1572.66 137.848 1577.18 135.127 1577.18 135.127C1577.18 139.662 1572.66 144.196 1570.85 146.917C1574.47 148.731 1579.9 146.01 1579.9 146.01C1581.71 163.241 1581.71 168.682 1581.71 168.682H1573.56C1573.56 168.682 1574.47 155.079 1559.98 149.638C1559.98 137.848 1558.17 126.965 1558.17 126.965C1558.17 126.965 1563.6 126.965 1571.75 125.152ZM1520.15 113.362C1521.96 117.896 1523.77 122.431 1526.48 126.058C1527.39 127.872 1528.29 129.686 1531.01 128.779C1531.92 127.872 1528.29 123.338 1527.39 120.617C1526.48 116.989 1522.86 111.548 1525.58 110.641C1526.48 110.641 1527.39 110.641 1527.39 111.548C1527.39 113.362 1528.29 115.176 1529.2 116.989C1533.73 126.058 1540.97 131.5 1549.12 133.314L1550.02 137.848C1546.4 137.848 1541.87 135.127 1534.63 131.5H1533.73C1532.82 133.314 1534.63 134.22 1535.54 135.127C1540.06 138.755 1545.5 140.569 1550.93 141.476V144.196C1538.25 143.289 1526.48 135.127 1521.05 123.338C1519.24 119.71 1518.33 116.083 1517.43 112.455C1518.33 112.455 1520.15 112.455 1520.15 113.362ZM1491.17 118.803C1492.08 118.803 1492.98 118.803 1492.98 118.803C1492.98 117.896 1492.98 116.083 1492.98 115.176C1492.98 112.455 1493.89 108.827 1495.7 106.107C1498.42 115.176 1504.75 121.524 1512 126.965C1512 127.872 1512 128.779 1511.09 128.779C1510.19 131.5 1498.42 118.803 1495.7 120.617C1495.7 121.524 1495.7 121.524 1495.7 122.431C1499.32 127.872 1504.75 130.593 1508.38 135.127C1508.38 136.034 1507.47 136.941 1507.47 137.848C1501.13 135.127 1495.7 130.593 1490.27 126.058C1487.55 124.245 1485.74 122.431 1483.02 122.431C1482.12 122.431 1481.21 122.431 1481.21 122.431C1483.02 119.71 1487.55 117.896 1491.17 118.803Z" fill="#1D1D1D"/>
<path d="M1560.89 38.0896C1562.7 38.0896 1564.51 37.1827 1565.41 37.1827C1568.13 38.0896 1569.03 41.7172 1569.94 43.531L1568.13 42.6241C1565.41 41.7172 1562.7 41.7172 1559.98 40.8103C1559.98 42.6241 1560.89 44.4379 1560.89 46.2517C1562.7 50.7861 1568.13 51.693 1571.75 54.4137C1569.94 54.4137 1567.22 54.4137 1565.41 53.5068C1564.51 53.5068 1563.6 52.5999 1562.7 52.5999C1563.6 55.3206 1565.41 58.9482 1567.22 60.762C1569.04 62.5758 1570.85 62.5758 1572.66 63.4827C1573.56 63.4827 1573.56 63.4827 1573.56 64.3896C1571.75 63.4827 1569.04 64.3896 1567.22 64.3896C1569.04 70.7379 1576.28 73.4585 1581.71 77.0861C1581.71 77.993 1580.81 77.993 1579.9 78.8999C1578.09 79.8068 1577.18 81.6206 1575.37 80.7137C1573.56 80.7137 1571.75 81.6206 1570.85 82.5275C1569.94 83.4344 1569.94 84.3413 1570.85 85.2482C1567.22 89.7827 1565.41 97.0378 1567.22 103.386C1569.04 109.734 1573.56 114.269 1578.09 116.99V120.617C1578.09 130.593 1587.14 135.127 1590.76 135.127C1596.2 135.127 1604.35 129.686 1604.35 120.617V116.99C1609.78 114.269 1614.3 109.734 1615.21 103.386C1617.02 97.0378 1615.21 89.7827 1611.59 85.2482C1611.59 84.3413 1611.59 83.4344 1611.59 82.5275C1610.68 80.7137 1608.87 79.8068 1607.06 80.7137C1605.25 81.6206 1604.35 79.8068 1602.53 78.8999C1601.63 78.8999 1601.63 77.993 1600.72 77.0861C1606.16 73.4585 1612.49 70.7379 1615.21 64.3896C1613.4 64.3896 1610.68 64.3896 1608.87 64.3896C1608.87 63.4827 1609.78 63.4827 1609.78 63.4827C1611.59 62.5758 1614.3 62.5758 1615.21 60.762C1617.93 58.9482 1619.74 55.3206 1619.74 52.5999C1618.83 52.5999 1617.93 53.5068 1617.02 53.5068C1615.21 54.4137 1613.4 54.4137 1611.59 54.4137C1616.12 51.693 1620.64 50.7861 1622.45 46.2517C1623.36 44.4379 1623.36 42.6241 1623.36 40.8103C1620.64 42.6241 1617.93 41.7172 1615.21 42.6241L1613.4 43.531C1614.3 41.7172 1615.21 38.0896 1617.93 37.1827C1619.74 37.1827 1620.64 38.0896 1622.45 38.0896C1626.07 38.0896 1628.79 35.3689 1629.7 31.7413C1631.51 26.3 1628.79 19.9517 1624.26 16.3241C1620.64 13.6034 1617.02 12.6965 1611.59 12.6965C1608.87 12.6965 1606.16 14.5103 1606.16 14.5103C1606.16 14.5103 1608.87 0 1593.48 0C1579.9 0 1576.28 14.5103 1576.28 14.5103C1576.28 14.5103 1573.56 13.6034 1570.85 12.6965C1566.32 12.6965 1561.79 13.6034 1558.17 16.3241C1553.64 19.9517 1551.83 25.3931 1552.74 31.7413C1554.55 34.462 1557.26 37.1827 1560.89 38.0896ZM1588.95 128.779C1588.05 127.872 1587.14 126.058 1585.33 125.152V116.99L1588.95 117.896C1588.95 121.524 1588.95 125.152 1588.95 128.779ZM1606.16 83.4344C1607.06 83.4344 1607.97 83.4344 1607.97 84.3413C1607.97 86.1551 1606.16 86.1551 1605.25 87.062C1609.78 90.6896 1610.68 97.9447 1608.87 103.386C1607.97 106.107 1606.16 108.827 1603.44 109.734H1601.63C1603.44 104.293 1604.35 97.9447 1602.53 92.5033C1601.63 90.6896 1601.63 88.8758 1600.72 87.9689C1598.91 87.9689 1597.1 87.9689 1595.29 88.8758C1596.2 97.0378 1597.1 105.2 1595.29 112.455C1593.48 112.455 1592.58 112.455 1590.76 112.455C1589.86 107.014 1588.95 100.665 1589.86 94.3171C1589.86 92.5033 1590.76 90.6896 1590.76 88.8758C1589.86 88.8758 1588.05 88.8758 1586.24 87.9689C1585.33 87.9689 1584.43 87.062 1584.43 87.9689C1581.71 94.3171 1580.81 103.386 1583.52 109.734C1582.62 109.734 1582.62 108.827 1581.71 108.827C1577.18 106.107 1576.28 100.665 1577.18 96.1309C1577.18 92.5033 1578.99 88.8758 1580.81 86.1551C1579.9 85.2482 1578.09 85.2482 1577.18 84.3413C1577.18 83.4344 1577.18 82.5275 1578.09 82.5275C1579.9 82.5275 1580.81 83.4344 1582.62 83.4344C1590.76 86.1551 1599.82 86.1551 1606.16 83.4344ZM1607.97 29.0207C1609.78 24.4862 1615.21 20.8586 1620.64 20.8586C1624.26 20.8586 1627.89 23.5793 1628.79 27.2069C1628.79 29.0207 1628.79 30.8344 1626.98 31.7413C1626.98 30.8344 1626.98 30.8344 1626.98 29.9276C1626.07 27.2069 1624.26 25.3931 1621.55 25.3931C1617.93 24.4862 1614.3 26.3 1612.49 29.9276C1607.97 37.1827 1608.87 45.3448 1607.97 53.5068C1607.06 58.0413 1607.97 65.2965 1602.53 67.1103C1604.35 59.8551 1605.25 51.693 1605.25 44.4379C1605.25 38.9965 1605.25 33.5551 1607.97 29.0207ZM1582.62 12.6965C1584.43 9.06896 1587.14 6.34827 1591.67 5.44137C1596.2 4.53448 1600.72 7.25516 1603.44 9.97585C1605.25 11.7896 1606.16 14.5103 1606.16 17.231C1607.06 23.5793 1603.44 29.0207 1601.63 34.462C1599.82 40.8103 1599.82 46.2517 1598.91 52.5999C1598.91 56.2275 1598.01 64.3896 1598.01 68.9241C1598.01 69.831 1598.01 69.831 1597.1 69.831C1596.2 69.831 1596.2 69.831 1596.2 68.9241C1594.39 59.8551 1595.29 44.4379 1597.1 35.3689C1598.01 29.0207 1600.72 25.3931 1600.72 19.0448C1600.72 14.5103 1598.91 10.8827 1595.29 9.06896C1592.58 8.16206 1589.86 8.16206 1587.14 9.06896C1584.43 9.97585 1583.52 12.6965 1583.52 16.3241C1583.52 17.231 1583.52 17.231 1584.43 18.1379C1586.24 17.231 1587.14 16.3241 1588.05 16.3241C1588.95 16.3241 1590.76 17.231 1591.67 18.1379C1593.48 20.8586 1593.48 23.5793 1593.48 26.3C1593.48 33.5551 1591.67 39.9034 1590.76 48.0655C1590.76 53.5068 1590.76 63.4827 1591.67 69.831C1591.67 69.831 1591.67 70.7379 1590.76 70.7379C1589.86 70.7379 1589.86 69.831 1588.95 69.831C1588.05 67.1103 1588.05 63.4827 1587.14 60.762C1587.14 56.2275 1587.14 48.9724 1587.14 44.4379C1587.14 38.0896 1588.95 31.7413 1588.95 25.3931C1588.95 24.4862 1588.95 23.5793 1588.05 22.6724C1587.14 21.7655 1586.24 21.7655 1585.33 21.7655C1584.43 21.7655 1584.43 22.6724 1584.43 23.5793C1581.71 20.8586 1580.81 16.3241 1582.62 12.6965ZM1559.08 27.2069C1559.98 23.5793 1563.6 21.7655 1567.22 20.8586C1572.66 20.8586 1577.18 23.5793 1579.9 29.0207C1582.62 33.5551 1582.62 38.9965 1582.62 44.4379C1582.62 52.5999 1582.62 59.8551 1585.33 67.1103C1580.81 64.3896 1580.81 58.0413 1579.9 53.5068C1578.99 45.3448 1579.9 36.2758 1575.37 29.9276C1573.56 27.2069 1569.94 25.3931 1566.32 25.3931C1563.6 25.3931 1561.79 28.1138 1560.89 29.9276C1560.89 30.8344 1560.89 30.8344 1560.89 31.7413C1559.08 30.8344 1559.08 29.0207 1559.08 27.2069Z" fill="#1D1D1D"/>
<path d="M1729.29 230.352C1729.29 228.538 1727.48 227.631 1726.57 226.724C1716.61 208.586 1716.61 190.448 1723.86 171.403C1724.76 169.59 1726.57 167.776 1726.57 165.055C1726.57 163.241 1725.67 161.428 1724.76 160.521C1725.67 158.707 1727.48 157.8 1729.29 157.8C1726.57 155.079 1722.05 156.893 1720.24 159.614C1716.61 160.521 1715.71 161.428 1714.8 165.055C1690.36 173.217 1671.34 182.286 1653.24 202.238C1651.43 200.424 1648.71 199.517 1645.99 201.331C1645.09 199.517 1645.99 197.703 1646.9 196.796C1639.66 196.796 1642.37 211.307 1645.09 214.934C1644.18 219.469 1636.94 250.303 1635.13 253.024C1631.51 257.558 1617.02 266.627 1611.59 268.441C1603.44 264.814 1621.55 253.024 1622.45 251.21C1623.36 249.396 1619.74 248.49 1621.55 245.769C1623.36 243.955 1626.07 242.141 1628.79 240.327C1629.7 239.421 1631.51 237.607 1630.6 235.793C1629.7 234.886 1626.98 233.072 1627.89 231.258C1629.7 229.445 1634.22 222.19 1633.32 219.469C1632.41 216.748 1627.89 218.562 1627.89 215.841C1627.89 212.214 1630.6 201.331 1626.98 198.61C1624.26 196.796 1621.55 203.145 1619.74 199.517C1618.83 196.796 1616.12 185.007 1612.49 186.821C1610.68 187.728 1608.87 193.169 1605.25 192.262C1603.44 190.448 1598.91 179.565 1595.29 183.193C1593.48 185.007 1589.86 192.262 1586.24 191.355C1583.52 190.448 1583.52 183.193 1579.9 185.007C1577.18 186.821 1575.37 189.541 1571.75 191.355C1569.94 192.262 1569.94 190.448 1568.13 190.448C1566.32 189.541 1563.6 191.355 1561.79 192.262C1556.36 194.983 1552.74 191.355 1548.21 188.634C1540.06 184.1 1536.44 184.1 1528.29 185.007C1521.05 185.914 1519.24 180.472 1511.09 190.448C1506.56 190.448 1502.04 189.541 1497.51 189.541C1495.7 189.541 1483.02 179.565 1479.4 189.541C1477.59 195.89 1483.02 197.703 1482.12 202.238C1483.93 204.959 1485.74 200.424 1489.36 202.238C1492.08 203.145 1491.17 205.865 1492.08 207.679H1492.98C1496.6 204.052 1500.23 204.052 1502.94 208.586C1504.75 211.307 1506.56 206.772 1509.28 207.679C1511.09 208.586 1512.9 209.493 1515.62 210.4C1517.43 211.307 1525.58 208.586 1528.29 209.493C1528.29 209.493 1529.2 209.493 1529.2 210.4C1529.2 212.214 1512.9 214.934 1510.19 214.934C1492.08 215.841 1474.88 195.89 1456.77 193.169C1454.96 193.169 1452.24 192.262 1450.43 194.076C1463.11 197.703 1454.96 206.772 1454.96 209.493C1458.58 207.679 1462.2 207.679 1465.82 207.679C1473.97 208.586 1488.46 214.027 1497.51 216.748L1498.42 217.655C1497.51 219.469 1483.93 216.748 1483.93 220.376C1483.93 221.283 1484.83 222.19 1484.83 223.096C1492.08 230.352 1513.81 224.91 1523.77 224.91C1527.39 224.91 1529.2 227.631 1531.91 229.445C1538.25 221.283 1546.4 228.538 1551.83 228.538L1552.74 227.631C1552.74 225.817 1550.93 224.91 1551.83 223.096C1554.55 215.841 1567.22 220.376 1572.66 221.283C1574.47 221.283 1576.28 220.376 1578.09 219.469C1583.52 217.655 1598.01 219.469 1594.39 226.724C1590.76 233.072 1581.71 230.352 1577.18 233.979C1577.18 234.886 1577.18 235.793 1576.28 236.7C1575.37 237.607 1560.89 240.327 1558.17 242.141C1557.27 243.048 1558.17 243.955 1558.17 243.955C1555.45 247.583 1542.78 251.21 1541.87 257.558C1541.87 258.465 1542.78 258.465 1542.78 259.372C1542.78 260.279 1538.25 268.441 1539.16 275.696C1539.16 276.603 1542.78 277.51 1543.68 277.51C1543.68 278.417 1544.59 278.417 1543.68 280.231L1535.54 281.138C1529.2 282.045 1522.86 282.952 1516.52 283.858C1513.81 284.765 1511.09 285.672 1508.37 285.672H1507.47C1504.75 285.672 1494.79 282.045 1492.08 281.138C1489.36 280.231 1489.36 276.603 1488.46 274.789C1489.36 272.976 1490.27 271.162 1490.27 269.348C1493.89 267.534 1494.79 263 1492.98 259.372L1492.08 258.465C1492.08 260.279 1492.08 263 1489.36 263C1484.83 257.558 1480.31 263 1479.4 268.441C1478.5 267.534 1477.59 263.907 1477.59 263C1477.59 260.279 1478.5 256.652 1475.78 254.838C1474.88 253.931 1473.06 253.024 1471.25 253.931C1473.06 255.745 1474.88 257.558 1473.06 259.372C1464.92 261.186 1464.01 267.534 1469.44 272.976C1470.35 273.883 1471.25 277.51 1471.25 279.324C1469.44 278.417 1468.54 278.417 1466.73 279.324C1461.29 277.51 1456.77 282.952 1458.58 282.952C1460.39 282.952 1461.29 282.045 1463.11 282.952C1462.2 292.021 1469.44 292.927 1475.78 289.3C1476.69 289.3 1478.5 289.3 1479.4 290.207C1482.12 297.462 1472.16 298.369 1477.59 305.624C1483.02 312.879 1489.36 302.903 1489.36 312.879C1496.6 308.345 1484.83 305.624 1488.46 294.741C1492.98 292.02 1497.51 299.276 1498.42 302.903C1512.9 302.903 1505.66 306.531 1505.66 311.972C1508.37 311.065 1518.33 311.972 1519.24 313.786C1520.14 316.507 1520.14 319.227 1521.05 322.855H1521.96C1523.77 321.948 1530.1 315.6 1531.91 319.227C1532.82 321.041 1542.78 323.762 1541.87 325.576C1535.54 339.179 1540.06 357.317 1539.16 372.734C1539.16 375.455 1535.54 385.431 1532.82 387.245C1522.86 392.686 1521.05 378.176 1519.24 375.455C1518.33 373.641 1512.9 372.734 1512.9 374.548C1514.71 375.455 1516.52 377.269 1515.62 379.082C1510.19 379.989 1511.09 386.338 1513.81 389.965C1512 389.965 1510.19 389.058 1509.28 389.058C1505.66 386.338 1501.13 387.245 1499.32 391.779C1501.13 390.872 1503.85 390.872 1505.66 391.779C1504.75 409.01 1516.52 395.407 1521.05 399.941C1519.24 400.848 1519.24 402.662 1518.33 404.476C1515.62 408.103 1512.9 410.824 1517.43 414.451C1517.43 411.731 1517.43 409.917 1520.14 409.01C1524.67 415.358 1531.01 409.01 1531.91 403.569C1547.31 395.407 1536.44 407.196 1545.5 409.917C1554.55 412.638 1555.45 399.034 1560.89 407.196C1561.79 406.289 1561.79 405.382 1561.79 405.382C1561.79 401.755 1557.27 400.848 1554.55 400.848C1553.64 399.941 1550.93 399.034 1550.02 398.127C1545.5 395.407 1550.93 380.896 1556.36 380.896C1556.36 378.176 1556.36 371.827 1560.89 373.641C1561.79 374.548 1562.7 376.362 1564.51 375.455C1566.32 370.014 1567.22 362.758 1573.56 368.2H1575.37C1577.18 340.086 1582.62 344.62 1587.14 368.2C1588.95 368.2 1591.67 368.2 1591.67 370.92C1591.67 373.641 1592.58 381.803 1594.39 384.524C1595.29 384.524 1596.2 384.524 1598.01 384.524C1599.82 387.245 1605.25 397.22 1607.06 399.034C1607.97 399.941 1609.78 398.127 1610.68 398.127C1613.4 400.848 1622.45 408.103 1626.07 408.103C1626.98 407.196 1627.89 406.289 1629.7 405.382C1635.13 407.196 1643.28 410.824 1648.71 410.824C1649.61 409.917 1650.52 409.01 1651.43 408.103C1655.95 408.103 1665.01 408.103 1669.53 406.289C1671.34 405.382 1670.44 402.662 1672.25 401.755C1675.87 399.941 1681.3 399.034 1684.02 395.407C1684.02 395.407 1684.92 388.151 1690.36 386.338C1694.88 387.245 1701.22 390.872 1698.51 396.313C1697.6 390.872 1691.26 389.965 1690.36 394.5C1689.45 397.22 1693.07 399.034 1693.07 401.755C1693.98 406.289 1688.55 408.103 1685.83 410.824C1685.83 411.731 1686.74 411.731 1687.64 411.731C1710.28 417.172 1713.9 393.593 1719.33 393.593C1720.23 393.593 1721.14 393.593 1721.14 393.593C1722.05 391.779 1717.52 389.058 1715.71 389.058C1711.18 388.151 1710.28 392.686 1709.37 392.686C1709.37 383.617 1703.03 379.989 1695.79 374.548C1696.7 370.92 1699.41 369.107 1701.22 366.386C1702.13 363.665 1698.51 361.851 1698.51 360.038C1697.6 357.317 1701.22 350.969 1701.22 348.248C1701.22 345.527 1698.51 346.434 1696.69 345.527C1692.17 343.714 1693.98 337.365 1693.98 333.738C1693.07 329.203 1688.55 331.924 1685.83 331.017C1682.21 329.203 1682.21 325.576 1678.59 323.762C1676.78 322.855 1674.97 323.762 1673.15 324.669C1669.53 326.483 1666.82 323.762 1663.2 322.855C1660.48 322.855 1659.57 324.669 1658.67 325.576C1656.86 327.389 1652.33 327.389 1650.52 329.203C1648.71 331.017 1649.61 332.831 1648.71 334.645C1647.8 336.458 1645.09 337.365 1644.18 340.086C1642.37 343.714 1645.09 346.434 1645.09 350.062C1645.09 352.782 1644.18 354.596 1645.09 357.317C1645.99 360.945 1647.8 361.851 1649.61 365.479C1651.43 370.013 1654.14 372.734 1659.57 374.548C1661.38 377.269 1664.1 378.176 1665.91 379.989C1662.29 382.71 1656.86 383.617 1652.33 381.803C1650.52 377.269 1643.28 379.989 1640.56 376.362C1639.66 375.455 1640.56 373.641 1640.56 372.734C1638.75 370.92 1633.32 366.386 1634.22 363.665C1634.22 361.851 1636.94 360.038 1636.94 357.317C1634.22 354.596 1631.51 350.969 1630.6 347.341C1633.32 345.527 1636.03 343.714 1636.94 340.086C1635.13 334.645 1630.6 331.924 1629.7 326.483C1631.51 325.576 1635.13 323.762 1636.94 321.948C1637.84 321.041 1640.56 319.227 1638.75 317.414C1636.94 314.693 1625.17 307.438 1626.98 302.903C1631.51 300.183 1645.09 306.531 1648.71 309.251C1649.61 310.158 1651.43 312.879 1653.24 311.972C1655.95 309.252 1657.76 305.624 1663.2 301.089C1670.44 295.648 1680.4 292.927 1689.45 293.834C1692.17 296.555 1692.17 303.81 1700.32 299.276C1701.22 301.089 1702.13 303.81 1702.13 305.624C1704.84 302.903 1704.84 298.369 1703.03 294.741C1703.03 292.02 1702.13 291.114 1701.22 288.393C1697.6 277.51 1708.47 250.303 1715.71 241.234C1716.61 240.327 1717.52 239.421 1718.42 239.421C1723.86 241.234 1723.86 241.234 1727.48 237.607C1728.38 238.514 1729.29 240.327 1730.19 242.141C1735.63 236.7 1732.91 232.165 1729.29 230.352ZM1552.74 202.238C1548.21 205.865 1545.5 204.959 1552.74 209.493V211.307C1550.02 214.027 1544.59 210.4 1541.87 213.121C1540.06 214.934 1544.59 218.562 1540.97 218.562C1537.35 218.562 1533.73 212.214 1530.1 217.655C1528.29 220.376 1494.79 225.817 1491.17 223.096C1492.08 222.19 1493.89 222.19 1495.7 222.19C1507.47 222.19 1515.62 215.841 1526.48 214.027C1530.1 213.121 1534.63 213.121 1539.16 211.307C1540.97 210.4 1543.68 209.493 1544.59 206.772C1544.59 205.865 1544.59 204.959 1543.68 204.959C1540.97 203.145 1529.2 203.145 1522.86 200.424C1521.05 199.517 1516.52 196.796 1515.62 196.796C1513.81 196.796 1512 198.61 1510.19 196.796C1509.28 194.983 1508.37 194.076 1506.56 194.983C1502.94 194.983 1502.94 194.076 1500.23 193.169C1498.42 192.262 1494.79 193.169 1493.89 193.169C1492.08 192.262 1493.89 190.448 1492.98 189.541C1492.08 188.634 1491.17 188.634 1490.27 189.541C1489.36 190.448 1488.46 191.355 1487.55 192.262H1486.65C1483.93 190.448 1487.55 185.914 1489.36 185.914C1492.98 185.007 1496.6 189.541 1500.23 190.448C1502.04 191.355 1514.71 193.169 1516.52 192.262C1520.14 192.262 1523.77 185.007 1532.82 187.728C1537.35 188.634 1550.93 201.331 1553.64 194.983C1555.45 194.076 1555.45 199.517 1552.74 202.238ZM1474.88 263C1475.78 263 1474.88 267.534 1474.88 269.348C1469.44 272.976 1470.35 262.093 1474.88 263ZM1468.54 285.672C1469.44 281.138 1475.78 284.765 1475.78 286.579C1474.88 291.114 1468.54 287.486 1468.54 285.672ZM1671.34 379.989C1672.25 379.082 1673.15 379.989 1674.06 379.989C1676.78 380.896 1683.11 382.71 1684.93 384.524C1683.11 388.151 1673.15 383.617 1671.34 379.989ZM1671.34 366.386H1672.25C1674.06 369.107 1677.68 372.734 1681.3 373.641V374.548C1676.78 377.269 1671.34 371.827 1671.34 366.386ZM1703.94 383.617C1707.56 386.338 1709.37 390.872 1708.46 394.5C1708.46 395.407 1707.56 396.313 1708.46 397.22H1710.28C1708.46 399.034 1706.65 400.848 1704.84 401.755C1704.84 397.22 1708.47 392.686 1704.84 388.151C1700.32 381.803 1683.11 378.176 1683.11 371.827C1684.02 370.92 1684.92 372.734 1685.83 372.734C1690.36 377.269 1698.51 378.176 1703.94 383.617ZM1701.22 364.572C1699.41 367.293 1697.6 370.014 1694.88 371.827C1693.07 371.827 1692.17 370.92 1691.26 370.013C1692.17 369.107 1699.41 364.572 1701.22 364.572ZM1696.69 351.876C1696.69 351.876 1698.51 349.155 1698.51 350.969C1697.6 356.41 1692.17 366.386 1686.74 368.2C1685.83 368.2 1684.93 367.293 1684.93 367.293C1684.93 367.293 1684.92 366.386 1685.83 366.386C1690.36 362.758 1693.07 356.41 1696.69 351.876ZM1689.45 350.969C1690.36 347.341 1690.36 341.9 1692.17 339.179C1692.17 338.272 1693.07 338.272 1693.98 338.272C1693.98 343.714 1694.88 352.782 1688.55 356.41H1687.64C1687.64 354.596 1688.55 352.782 1689.45 350.969ZM1685.83 344.62C1685.83 339.179 1683.11 334.645 1681.3 329.203C1685.83 328.296 1689.45 341.9 1685.83 344.62ZM1678.59 364.572C1671.34 361.851 1658.67 350.062 1667.72 342.807C1675.87 336.458 1688.55 350.969 1678.59 364.572ZM1678.59 338.272C1676.78 337.365 1676.78 336.458 1675.87 334.645C1674.06 331.017 1671.34 329.203 1667.72 326.483C1670.44 324.669 1679.49 329.203 1678.59 338.272ZM1669.53 339.179C1664.1 335.551 1663.2 333.738 1656.86 335.551C1655.95 331.924 1667.72 327.389 1669.53 339.179ZM1658.67 363.665C1652.33 359.131 1655.05 348.248 1659.57 349.155C1655.95 358.224 1659.57 359.131 1658.67 363.665ZM1651.43 350.062C1647.8 343.714 1657.76 335.551 1663.2 340.086C1655.05 343.714 1655.95 344.62 1651.43 350.062ZM1663.2 359.131C1664.1 363.665 1665.01 366.386 1668.63 370.013C1658.67 373.641 1661.38 353.689 1663.2 359.131ZM1664.1 382.71C1665.01 381.803 1665.01 381.803 1665.91 382.71C1669.53 385.431 1669.53 389.965 1679.49 393.593C1675.87 399.941 1660.48 387.245 1664.1 382.71ZM1652.33 383.617L1654.14 381.803C1655.05 381.803 1655.05 382.71 1655.95 383.617C1658.67 389.058 1663.2 394.5 1667.72 398.127C1659.57 401.755 1651.43 391.779 1652.33 383.617ZM1640.56 377.269C1641.47 377.269 1642.37 378.176 1642.37 379.082C1644.18 386.338 1645.09 392.686 1649.61 399.034L1648.71 399.941C1638.75 401.755 1634.22 378.176 1640.56 377.269ZM1639.66 257.558C1643.28 253.931 1649.61 220.376 1651.43 213.121C1645.09 206.772 1648.71 197.703 1655.05 208.586C1673.15 186.821 1692.17 176.845 1718.42 168.683C1719.33 166.869 1719.33 165.055 1722.05 164.148L1723.86 165.055C1725.67 168.683 1720.24 172.31 1717.52 172.31C1693.98 178.659 1673.15 193.169 1658.67 212.214C1655.95 215.841 1655.05 221.283 1654.14 224.91C1653.24 230.352 1649.61 256.652 1643.28 261.186C1637.84 265.721 1627.89 271.162 1621.55 273.883C1620.64 273.883 1619.74 274.789 1617.93 274.789V273.883C1623.36 267.534 1633.32 263.907 1639.66 257.558ZM1643.28 286.579C1635.13 289.3 1635.13 274.789 1638.75 272.069C1638.75 271.162 1640.56 271.162 1641.47 272.069C1643.28 274.789 1641.47 281.138 1643.28 286.579ZM1631.51 284.765L1629.7 285.672C1622.45 283.858 1628.79 271.162 1630.6 276.603C1632.41 278.417 1631.51 282.045 1631.51 284.765ZM1556.36 208.586C1555.45 204.052 1562.7 208.586 1564.51 210.4C1568.13 214.027 1557.27 213.121 1556.36 208.586ZM1573.56 209.493C1571.75 212.214 1563.6 201.331 1563.6 198.61H1564.51C1567.22 199.517 1575.37 206.772 1573.56 209.493ZM1583.52 212.214H1581.71C1580.81 210.4 1581.71 208.586 1580.81 206.772C1578.99 202.238 1575.37 197.703 1570.85 194.983C1583.52 195.89 1589.86 204.959 1583.52 212.214ZM1589.86 214.027C1590.76 206.772 1597.1 203.145 1587.14 194.076C1602.53 195.89 1598.91 215.841 1589.86 214.027ZM1597.1 219.469C1596.2 218.562 1598.91 216.748 1599.82 215.841C1605.25 210.4 1605.25 203.145 1602.53 196.796C1608.87 199.517 1611.59 204.052 1610.68 209.493C1609.78 213.121 1599.82 223.096 1597.1 219.469ZM1488.46 264.814C1490.27 264.814 1489.36 272.976 1484.83 271.162C1483.93 268.441 1484.83 264.814 1488.46 264.814ZM1483.93 298.369H1485.74C1486.65 300.183 1487.55 302.903 1488.46 304.717C1483.93 308.345 1480.31 300.183 1483.93 298.369ZM1540.97 294.741C1538.25 294.741 1533.73 299.276 1530.1 299.276H1529.2C1530.1 296.555 1532.82 295.648 1533.73 292.927L1532.82 292.021C1524.67 289.3 1519.24 298.369 1512 300.183C1511.09 300.183 1510.19 300.183 1510.19 299.276C1511.09 298.369 1512.9 296.555 1512.9 295.648C1503.85 292.02 1496.6 286.579 1486.65 290.207C1485.74 289.3 1487.55 288.393 1487.55 286.579C1487.55 282.045 1483.02 283.858 1480.31 283.858C1480.31 282.045 1481.21 282.045 1481.21 281.138C1480.31 280.231 1479.4 278.417 1479.4 277.51C1483.02 279.324 1486.65 282.952 1491.17 284.765C1495.7 286.579 1505.66 290.207 1510.19 291.114C1512.9 292.02 1519.24 289.3 1521.96 288.393C1529.2 286.579 1537.35 286.579 1544.59 286.579C1544.59 289.3 1544.59 291.114 1544.59 293.834C1545.5 293.834 1546.4 293.834 1546.4 293.834C1547.31 297.462 1547.31 301.996 1548.21 305.624C1545.5 307.438 1546.4 294.741 1540.97 294.741ZM1511.09 395.407V393.593C1512.9 393.593 1516.52 394.5 1517.43 395.407V397.22C1516.52 399.941 1512 398.127 1511.09 395.407ZM1522.86 383.617C1523.77 384.524 1524.67 386.338 1524.67 388.151C1517.43 389.965 1519.24 375.455 1522.86 383.617ZM1526.48 406.289C1526.48 406.289 1532.82 401.755 1532.82 405.382C1531.91 410.824 1523.77 408.103 1526.48 406.289ZM1555.45 406.289C1555.45 409.917 1547.31 407.196 1548.21 402.662C1549.12 402.662 1554.55 405.382 1555.45 406.289ZM1586.24 331.924C1583.52 331.017 1585.33 313.786 1585.33 311.065L1584.43 310.158C1581.71 310.158 1579.9 318.32 1578.99 321.041C1576.28 319.227 1576.28 310.158 1575.37 306.531L1574.47 305.624C1569.04 308.345 1572.66 327.389 1570.85 330.11C1569.04 330.11 1569.04 328.296 1567.22 328.296C1565.41 328.296 1564.51 331.017 1564.51 331.924C1563.6 337.365 1565.41 342.807 1564.51 348.248C1564.51 348.248 1564.51 350.062 1563.6 350.062C1561.79 350.062 1561.79 344.62 1559.08 342.807C1559.08 342.807 1558.17 342.807 1557.27 342.807C1555.45 345.527 1556.36 354.596 1556.36 357.317L1555.45 358.224C1553.64 358.224 1553.64 356.41 1552.74 357.317C1551.83 358.224 1551.83 360.945 1551.83 361.851C1551.83 366.386 1550.93 371.827 1550.93 376.362C1550.93 377.269 1546.4 385.431 1545.5 387.245C1544.59 389.965 1546.4 393.593 1546.4 396.313C1543.68 397.22 1543.68 394.5 1541.87 393.593C1539.16 391.779 1531.01 397.22 1528.29 398.127C1527.39 396.313 1530.1 395.407 1528.29 394.5C1526.48 393.593 1523.77 393.593 1521.96 392.686V391.779C1527.39 392.686 1535.54 395.407 1540.06 390.872C1540.97 389.965 1547.31 375.455 1548.21 374.548C1549.12 370.013 1548.21 364.572 1549.12 360.038C1550.02 348.248 1551.83 337.365 1555.45 326.483C1557.27 321.041 1559.08 316.507 1559.98 311.065C1560.89 305.624 1560.89 300.183 1561.79 294.741L1563.6 284.765L1562.7 283.858C1559.98 284.765 1558.17 288.393 1556.36 291.114C1553.64 289.3 1557.27 276.603 1557.27 273.883H1556.36C1553.64 275.696 1552.74 279.324 1550.93 282.952C1547.31 274.789 1551.83 271.162 1552.74 263.907C1551.83 263.907 1550.93 263.907 1550.02 264.814C1555.45 236.7 1610.68 242.141 1616.12 211.307C1617.02 208.586 1616.12 205.865 1616.12 203.145C1617.93 204.959 1619.74 208.586 1619.74 211.307C1623.36 229.445 1583.52 241.234 1583.52 241.234C1594.39 240.327 1611.59 236.7 1619.74 229.445C1620.64 240.327 1573.56 245.769 1569.04 252.117C1578.09 251.21 1587.14 250.303 1596.2 249.396C1586.24 254.838 1577.18 253.931 1567.22 262.093L1568.13 263C1569.94 263 1571.75 262.093 1572.66 261.186C1578.99 259.372 1585.33 258.465 1592.58 258.465C1584.43 262.093 1576.28 264.814 1569.94 272.069V272.976H1570.85C1575.37 270.255 1588.95 266.627 1593.48 268.441C1586.24 271.162 1578.99 275.696 1573.56 281.138C1573.56 282.045 1574.47 282.045 1575.37 282.045C1583.52 278.417 1589.86 275.696 1598.91 276.603C1598.01 278.417 1576.28 288.393 1578.99 292.021C1578.99 292.021 1579.9 292.021 1580.81 292.021C1587.14 288.393 1598.01 282.952 1605.25 285.672V286.579C1599.82 289.3 1588.05 294.741 1587.14 301.089C1592.58 301.089 1606.16 291.114 1611.59 296.555L1610.68 297.462C1609.78 298.369 1607.06 299.276 1605.25 300.183C1598.01 304.717 1590.76 311.065 1588.05 319.227C1588.05 324.669 1587.14 328.296 1586.24 331.924ZM1592.58 346.434H1591.67C1590.76 345.527 1590.76 344.62 1590.76 342.807C1588.95 329.203 1593.48 316.507 1606.16 310.158C1609.78 308.345 1616.12 304.717 1620.64 306.531C1604.35 321.948 1598.91 325.576 1592.58 346.434ZM1598.91 360.945H1598.01C1597.1 360.038 1597.1 359.131 1597.1 357.317C1595.29 343.714 1599.82 331.017 1612.49 324.669C1616.12 322.855 1622.45 319.227 1626.98 321.041C1610.68 336.458 1605.25 340.086 1598.91 360.945ZM1633.32 369.107C1636.94 369.107 1632.41 376.362 1631.51 377.269C1629.7 382.71 1629.7 388.151 1632.41 393.593C1622.45 395.407 1619.74 370.92 1633.32 369.107ZM1617.93 383.617C1608.87 374.548 1616.12 358.224 1626.98 354.596C1627.89 354.596 1630.6 353.689 1631.51 354.596C1622.45 364.572 1617.02 371.827 1617.93 383.617ZM1630.6 338.272C1619.74 346.434 1611.59 356.41 1608.87 369.107C1607.97 371.827 1607.97 374.548 1607.06 377.269L1605.25 376.362C1600.72 361.851 1608.87 335.551 1630.6 338.272ZM1655.05 300.183H1654.14C1654.14 300.183 1650.52 298.369 1649.61 298.369C1643.28 295.648 1637.84 293.834 1631.51 293.834C1629.7 293.834 1627.89 294.741 1626.07 293.834V292.927C1632.41 289.3 1647.8 293.834 1648.71 292.021C1649.61 291.114 1645.99 269.348 1649.61 262.093L1650.52 261.186C1651.43 266.627 1651.43 272.069 1652.33 277.51C1652.33 279.324 1654.14 292.927 1656.86 292.021C1659.57 290.207 1656.86 258.465 1658.67 252.117C1658.67 251.21 1659.57 249.396 1661.38 249.396C1661.38 253.931 1662.29 282.045 1666.82 283.858C1667.72 283.858 1667.72 283.858 1668.63 282.952C1670.44 278.417 1666.82 257.558 1671.34 254.838L1672.25 255.745C1673.15 262.093 1673.15 277.51 1674.97 282.952H1676.78C1677.68 282.045 1677.68 272.976 1679.49 270.255H1680.4C1680.4 272.069 1681.3 279.324 1681.3 280.231C1683.11 284.765 1684.92 277.51 1686.74 278.417C1688.55 279.324 1689.45 282.952 1689.45 284.765C1673.15 288.393 1668.63 289.3 1655.05 300.183ZM1712.09 239.421C1706.65 249.396 1700.32 259.372 1699.41 271.162C1699.41 274.789 1698.51 283.858 1699.41 286.579C1700.32 288.393 1702.13 289.3 1701.22 292.021C1701.22 292.927 1699.41 293.834 1698.51 293.834C1695.79 293.834 1695.79 289.3 1695.79 287.486C1692.17 274.789 1684.92 264.814 1678.59 253.931C1676.78 250.303 1663.2 231.258 1664.1 228.538C1664.1 226.724 1666.82 219.469 1669.53 222.19C1669.53 224.91 1667.72 229.445 1668.63 231.258C1670.44 237.607 1676.78 222.19 1679.49 224.003C1680.4 224.003 1679.49 224.91 1679.49 225.817C1678.59 230.352 1674.97 234.886 1675.87 240.327C1678.59 244.862 1683.11 228.538 1687.64 227.631C1687.64 233.072 1681.3 241.234 1681.3 249.396L1682.21 250.303C1684.02 250.303 1692.17 232.165 1696.69 229.445C1695.79 235.793 1684.92 251.21 1686.74 257.558C1687.64 258.465 1688.55 257.558 1689.45 256.652C1693.07 250.303 1698.51 237.607 1703.94 233.979C1704.84 233.979 1704.84 234.886 1704.84 235.793C1700.32 244.862 1693.98 253.024 1693.07 263.907C1693.07 265.721 1693.07 266.627 1694.88 266.627C1699.41 261.186 1702.13 247.583 1710.28 239.421C1710.28 239.421 1712.09 237.607 1712.99 237.607C1712.99 237.607 1712.09 238.514 1712.09 239.421ZM1723.86 234.886C1722.05 234.886 1720.24 233.072 1718.42 231.258C1708.47 224.91 1698.51 219.469 1686.74 215.841C1684.92 214.934 1671.34 212.214 1671.34 211.307C1671.34 207.679 1674.97 210.4 1675.87 208.586C1675.87 206.772 1676.78 205.865 1676.78 204.052H1677.68C1678.59 205.865 1678.59 207.679 1679.49 209.493C1679.49 210.4 1680.4 211.307 1681.3 211.307C1685.83 211.307 1680.4 199.517 1684.02 198.61C1684.92 202.238 1686.74 210.4 1688.55 212.214C1693.07 216.748 1686.74 193.169 1692.17 193.169L1693.07 194.076C1693.07 197.703 1693.98 215.841 1698.51 215.841L1699.41 214.934C1699.41 211.307 1696.69 187.728 1702.13 187.728C1702.13 188.634 1703.03 204.052 1703.03 206.772C1703.03 209.493 1704.84 216.748 1706.65 218.562C1708.47 220.376 1709.37 218.562 1709.37 216.748C1709.37 205.865 1706.65 194.983 1711.18 185.007C1711.18 184.1 1712.09 182.286 1713.9 182.286L1714.8 183.193C1712.09 198.61 1713.9 213.121 1721.14 227.631C1722.95 228.538 1730.19 233.072 1723.86 234.886Z" fill="#1D1D1D"/>
<path d="M1545.49 199.517C1537.35 193.169 1530.1 188.634 1519.24 194.983V196.796C1521.05 197.703 1521.95 199.517 1522.86 200.424C1526.48 204.052 1544.59 205.865 1547.31 201.331V200.424L1545.49 199.517ZM1527.39 199.517C1525.58 198.61 1523.77 197.703 1522.86 195.889C1524.67 194.983 1527.39 194.983 1529.2 194.983C1527.39 195.889 1526.48 198.61 1527.39 199.517ZM1534.63 201.331C1535.54 201.331 1536.44 198.61 1535.54 197.703C1537.35 198.61 1538.25 199.517 1540.06 200.424C1538.25 200.424 1536.44 201.331 1534.63 201.331Z" fill="#1D1D1D"/>
<path d="M97.7805 553.206C99.5913 556.834 101.402 561.368 103.213 564.996C105.024 568.624 106.834 572.251 109.551 575.879C111.361 579.506 113.172 583.134 114.983 586.761C116.794 591.296 119.51 594.923 122.226 599.458C124.037 603.086 125.847 606.713 127.658 610.341C129.469 613.061 131.28 616.689 133.091 619.41C134.901 623.037 136.712 625.758 138.523 629.386C144.861 617.596 151.198 606.713 158.441 594.923C165.685 581.32 172.928 567.717 180.171 555.02H181.981C183.792 571.344 184.698 587.668 187.414 603.992C189.225 619.41 191.941 634.827 193.752 651.151C189.225 651.151 187.414 650.244 180.171 651.151C179.265 639.361 179.265 627.572 177.455 615.782C176.549 603.992 174.738 592.203 172.928 580.413C166.59 591.296 160.252 603.086 153.914 613.968C149.388 621.223 145.766 629.386 142.144 637.548C140.334 642.082 138.523 645.71 136.712 650.244H135.807C133.996 646.617 133.091 643.896 131.28 640.268C129.469 637.548 128.564 634.827 126.753 632.106C124.942 628.479 123.131 624.851 121.321 621.223C119.51 617.596 116.794 613.061 114.983 609.434C112.267 604.899 110.456 601.272 107.74 596.737C105.024 591.296 101.402 585.855 98.6859 580.413C96.8751 593.11 95.0643 605.806 94.1589 618.503C93.2535 629.385 92.3482 640.268 91.4428 651.151H80.5781C81.4835 646.617 82.3889 642.082 83.2943 638.454C84.1997 632.106 85.1051 625.758 86.0105 620.317C86.9158 614.875 87.8212 610.341 88.7266 604.899C91.4428 588.575 93.2535 572.251 95.0643 555.927H97.7805V553.206Z" fill="#1D1D1D"/>
<path d="M247.17 554.113C249.887 562.275 252.603 569.53 255.319 577.692C258.035 584.948 261.657 592.203 264.373 599.458C266.184 603.992 267.994 609.434 269.805 613.968C271.616 618.503 273.427 623.944 275.237 628.479C277.048 632.106 277.954 636.641 279.764 640.268C280.67 642.989 282.481 645.71 283.386 648.43C277.954 648.43 277.048 647.523 268.9 648.43C266.184 636.641 265.278 632.106 257.13 612.155H221.82C218.198 618.503 214.576 625.758 211.86 632.106C209.144 637.548 207.333 642.989 205.523 647.523C204.617 647.523 202.806 647.523 200.996 647.523C199.185 647.523 198.28 647.523 196.469 647.523C199.185 642.989 201.901 638.455 203.712 633.92C206.428 628.479 210.05 622.13 212.766 616.689C216.387 609.434 220.914 601.272 224.536 594.017C227.252 587.668 229.968 581.32 233.59 575.879C235.4 571.344 238.117 567.717 239.927 563.182C241.738 559.555 242.643 556.834 244.454 553.206H247.17V554.113ZM234.495 587.668C230.873 594.017 228.157 601.272 225.441 607.62C231.779 607.62 237.211 608.527 243.549 608.527C248.076 608.527 251.697 608.527 256.224 608.527C252.603 597.644 251.697 592.203 242.643 573.158C239.927 576.786 237.211 582.227 234.495 587.668Z" fill="#1D1D1D"/>
<path d="M293.344 636.641C296.06 639.361 297.871 642.082 301.493 643.896C306.02 645.71 311.452 646.616 313.263 646.616C317.79 646.616 321.411 645.71 322.317 644.803C332.276 640.268 334.087 630.292 334.087 626.665C334.087 625.758 334.087 623.944 334.087 622.13C333.181 617.596 330.465 613.061 323.222 609.434C316.884 605.806 310.547 604.899 305.114 600.365C296.06 594.016 294.25 584.948 294.25 581.32C294.25 574.972 296.06 571.344 296.966 569.53C302.398 560.461 313.263 555.02 323.222 555.02C331.37 555.02 339.519 558.648 342.235 558.648C341.33 560.461 341.33 562.275 340.424 564.089C340.424 565.903 339.519 567.717 339.519 569.53H337.708C336.803 568.623 335.897 566.81 334.992 565.903C332.276 564.089 328.654 560.461 321.411 560.461C318.695 560.461 311.452 560.461 306.02 566.81C305.114 567.717 302.398 571.344 302.398 575.879C302.398 577.692 302.398 580.413 305.114 584.041C309.641 591.296 318.695 594.017 325.938 596.737C327.749 597.644 331.37 599.458 333.181 601.272C336.803 603.992 344.046 609.434 344.046 621.223C344.046 631.199 339.519 640.268 331.37 645.71C327.749 647.523 321.411 651.151 311.452 651.151C306.02 651.151 300.587 650.244 289.723 648.43L292.439 636.641H293.344Z" fill="#1D1D1D"/>
<path d="M378.453 584.041C378.453 578.599 378.453 574.065 378.453 568.623C378.453 565.903 378.453 564.089 378.453 561.368C362.156 561.368 357.629 561.368 349.48 562.275V555.02C361.251 555.927 362.156 555.927 373.926 555.927C383.885 555.927 394.75 555.927 405.614 555.927C410.141 555.927 414.668 555.927 419.195 555.02C419.195 557.741 419.195 558.648 419.195 562.275C413.763 562.275 409.236 561.368 403.804 561.368C399.277 561.368 394.75 561.368 391.128 561.368C391.128 577.692 390.223 593.11 390.223 609.434C390.223 623.037 390.223 636.641 391.128 650.244C385.696 649.337 384.791 649.337 378.453 650.244C379.358 635.734 379.358 620.317 379.358 605.806L378.453 584.041Z" fill="#1D1D1D"/>
<path d="M470.802 603.992C460.843 603.086 457.222 602.179 440.019 603.086C440.019 613.061 440.019 622.13 440.019 632.106C440.019 635.734 440.019 640.268 440.019 643.896C446.357 643.896 451.789 643.896 458.127 643.896C463.559 643.896 468.992 643.896 474.424 642.989V650.244C466.275 650.244 457.222 649.337 449.073 649.337C441.83 649.337 434.587 649.337 427.344 650.244C428.249 642.082 428.249 634.827 428.249 626.665C428.249 617.596 428.249 608.527 428.249 599.458C428.249 595.83 428.249 591.296 428.249 587.668C428.249 576.786 428.249 566.81 427.344 555.927C436.398 556.834 444.546 556.834 453.6 556.834C459.938 556.834 467.181 556.834 473.518 555.927C472.613 559.555 472.613 560.461 473.518 563.182C467.181 563.182 460.843 562.275 454.505 562.275C449.978 562.275 445.451 562.275 440.019 562.275C440.019 567.717 439.114 573.158 439.114 578.599C439.114 584.948 439.114 591.296 439.114 597.644C443.641 597.644 448.168 597.644 453.6 597.644C459.032 597.644 464.465 597.644 469.897 596.737L470.802 603.992Z" fill="#1D1D1D"/>
<path d="M508.829 555.02C513.356 555.02 517.883 555.02 522.41 555.02C531.464 555.927 539.612 555.927 545.95 564.089C547.761 565.903 549.572 570.437 549.572 576.786C549.572 580.413 548.666 584.041 547.761 584.948C545.045 592.203 538.707 596.737 531.464 599.458C526.937 601.272 524.221 601.272 519.694 602.179C520.599 603.086 522.41 603.993 523.315 604.899C526.937 607.62 528.748 611.248 531.464 614.875C533.275 617.596 535.991 619.41 537.801 622.13C539.612 624.851 541.423 626.665 543.234 629.386C545.045 632.106 547.761 633.92 549.572 636.641C551.382 639.361 554.098 642.082 555.909 643.896C557.72 645.71 559.531 647.524 560.436 648.43C557.72 648.43 555.004 647.524 552.288 647.524C549.572 647.524 547.761 647.524 545.045 648.43C543.234 645.71 541.423 642.989 539.612 640.268C537.801 637.548 535.991 634.827 533.275 632.106C530.558 629.386 528.748 625.758 526.031 623.037C524.221 621.224 522.41 618.503 520.599 616.689C518.788 613.968 516.978 612.155 514.261 609.434C511.545 606.713 508.829 603.993 506.113 601.272C506.113 609.434 506.113 618.503 506.113 627.572C506.113 634.827 507.018 642.082 507.018 649.337C505.208 649.337 502.491 649.337 500.681 649.337C497.964 649.337 496.154 649.337 493.438 649.337C494.343 642.082 494.343 634.827 494.343 626.665C494.343 617.596 494.343 607.62 494.343 598.551C494.343 584.041 494.343 568.624 493.438 554.113C499.775 555.02 504.302 555.02 508.829 555.02ZM507.018 585.855C507.018 590.389 507.018 594.924 507.018 599.458C509.734 599.458 512.451 599.458 515.167 599.458C516.978 599.458 520.599 599.458 525.126 597.644C533.275 594.924 537.801 586.762 537.801 578.599C537.801 575.879 537.801 569.531 532.369 564.089C526.937 559.555 520.599 559.555 518.788 559.555C515.167 559.555 511.545 559.555 507.924 560.462C507.018 568.624 507.018 576.786 507.018 585.855Z" fill="#1D1D1D"/>
<path d="M608.421 636.641C611.138 639.361 612.948 642.082 616.57 643.896C621.097 645.71 626.529 646.616 628.34 646.616C632.867 646.616 636.489 645.71 637.394 644.803C647.353 640.268 649.164 630.292 649.164 626.665C649.164 625.758 649.164 623.944 649.164 622.13C648.258 617.596 645.542 613.061 638.299 609.434C631.962 605.806 625.624 604.899 620.192 600.365C611.138 594.016 609.327 584.948 609.327 581.32C609.327 574.972 611.138 571.344 612.043 569.53C617.475 560.461 628.34 555.02 638.299 555.02C646.448 555.02 654.596 558.648 657.312 558.648C656.407 560.461 656.407 562.275 655.502 564.089C655.502 565.903 654.596 567.717 654.596 569.53H651.88C650.975 568.623 650.069 566.81 649.164 565.903C646.448 564.089 642.826 560.461 635.583 560.461C632.867 560.461 625.624 560.461 620.192 566.81C619.286 567.717 616.57 571.344 616.57 575.879C616.57 577.692 616.57 580.413 619.286 584.041C623.813 591.296 632.867 594.017 640.11 596.737C641.921 597.644 645.542 599.458 647.353 601.272C650.975 603.992 658.218 609.434 658.218 621.223C658.218 631.199 653.691 640.268 645.542 645.71C641.921 647.523 635.583 651.151 625.624 651.151C620.192 651.151 614.759 650.244 603.895 648.43L606.611 636.641H608.421Z" fill="#1D1D1D"/>
<path d="M740.605 555.02C743.321 564.996 746.037 574.065 748.753 584.041C750.564 591.296 753.28 597.644 755.091 603.992C756.902 609.434 758.713 614.875 760.524 620.317C762.334 624.851 764.145 630.292 765.956 634.827C769.577 623.037 774.104 611.248 777.726 599.458C785.874 574.065 787.685 569.53 790.401 555.02C793.118 555.02 794.928 555.02 795.834 555.02C797.644 555.02 799.455 555.02 801.266 555.02C799.455 558.648 797.644 562.275 795.834 566.81C794.023 572.251 792.212 577.692 790.401 582.227C788.591 587.668 785.874 593.11 784.064 598.551C782.253 603.992 780.442 609.434 778.631 613.968C775.915 620.316 774.104 626.665 771.388 633.92C769.577 638.454 768.672 643.896 766.861 649.337C764.145 649.337 762.334 649.337 757.807 649.337C755.997 642.989 754.186 635.734 752.375 629.385C748.754 618.503 745.132 608.527 742.416 598.551C739.7 589.482 736.078 580.413 733.362 571.344C728.835 583.134 724.308 595.83 720.687 607.62C717.97 616.689 714.349 624.851 711.633 633.92C710.727 636.641 708.916 640.268 708.011 642.989C707.106 644.803 707.106 647.523 706.2 649.337H696.241C695.336 645.71 694.43 641.175 692.62 637.548C691.714 633.013 689.903 629.385 688.998 624.851C688.093 620.317 686.282 615.782 685.376 612.154C684.471 608.527 682.66 603.992 681.755 600.365C679.039 593.11 677.228 584.948 674.512 577.692C671.796 570.437 669.079 563.182 666.363 555.927C671.796 555.927 671.796 556.834 679.944 555.927C683.566 569.53 687.187 583.134 691.714 597.644C695.336 611.248 699.863 623.944 704.39 636.641C706.2 632.106 708.011 627.572 709.822 623.037C712.538 616.689 714.349 609.434 716.16 603.085C719.781 592.203 723.403 582.227 727.024 571.344C728.835 566.81 729.74 561.368 731.551 555.927L740.605 555.02Z" fill="#1D1D1D"/>
<path d="M826.617 555.02C825.711 559.554 825.711 564.089 825.711 568.623C825.711 575.879 825.711 583.134 825.711 590.389C825.711 600.365 825.711 609.434 825.711 619.41C825.711 629.385 825.711 639.361 826.617 650.244C824.806 650.244 822.09 649.337 820.279 649.337C819.374 649.337 816.658 649.337 813.941 650.244C814.847 643.896 814.847 638.454 814.847 632.106C814.847 625.758 814.847 618.503 814.847 612.154C814.847 602.179 814.847 593.11 814.847 583.134C814.847 578.599 814.847 573.158 814.847 568.623C814.847 564.089 814.847 560.461 813.941 555.927C819.374 555.02 820.279 555.02 826.617 555.02Z" fill="#1D1D1D"/>
<path d="M851.063 636.641C853.779 639.361 855.59 642.082 859.211 643.896C863.738 645.71 869.171 646.616 870.981 646.616C875.508 646.616 879.13 645.71 880.035 644.803C889.995 640.268 891.805 630.292 891.805 626.665C891.805 625.758 891.805 623.944 891.805 622.13C890.9 617.596 888.184 613.061 880.941 609.434C874.603 605.806 868.265 604.899 862.833 600.365C853.779 594.016 851.968 584.948 851.968 581.32C851.968 574.972 853.779 571.344 854.685 569.53C860.117 560.461 870.982 555.02 880.941 555.02C889.089 555.02 897.238 558.648 899.954 558.648C899.048 560.461 899.048 562.275 898.143 564.089C898.143 565.903 897.238 567.717 897.238 569.53H895.427C894.522 568.623 893.616 566.81 892.711 565.903C889.995 564.089 886.373 560.461 879.13 560.461C876.414 560.461 869.171 560.461 863.738 566.81C862.833 567.717 860.117 571.344 860.117 575.879C860.117 577.692 860.117 580.413 862.833 584.041C867.36 591.296 876.414 594.017 883.657 596.737C885.468 597.644 889.089 599.458 890.9 601.272C894.522 603.992 901.765 609.434 901.765 621.223C901.765 631.199 897.238 640.268 889.089 645.71C885.468 647.523 879.13 651.151 869.171 651.151C863.738 651.151 858.306 650.244 847.441 648.43L851.063 636.641Z" fill="#1D1D1D"/>
<path d="M918.063 636.641C920.779 639.361 922.59 642.082 926.211 643.896C930.738 645.71 936.171 646.616 937.981 646.616C942.508 646.616 946.13 645.71 947.035 644.803C956.995 640.268 958.805 630.292 958.805 626.665C958.805 625.758 958.805 623.944 958.805 622.13C957.9 617.596 955.184 613.061 947.941 609.434C941.603 605.806 935.265 604.899 929.833 600.365C920.779 594.016 918.968 584.948 918.968 581.32C918.968 574.972 920.779 571.344 921.685 569.53C927.117 560.461 937.981 555.02 947.941 555.02C956.089 555.02 964.238 558.648 966.954 558.648C966.048 560.461 966.048 562.275 965.143 564.089C965.143 565.903 964.238 567.717 964.238 569.53H962.427C961.522 568.623 960.616 566.81 959.711 565.903C956.995 564.089 953.373 560.461 946.13 560.461C943.414 560.461 936.171 560.461 930.738 566.81C929.833 567.717 927.117 571.344 927.117 575.879C927.117 577.692 927.117 580.413 929.833 584.041C934.36 591.296 943.414 594.017 950.657 596.737C952.468 597.644 956.089 599.458 957.9 601.272C961.522 603.992 968.765 609.434 968.765 621.223C968.765 631.199 964.238 640.268 956.089 645.71C952.468 647.523 946.13 651.151 936.171 651.151C930.738 651.151 925.306 650.244 914.441 648.43L918.063 636.641Z" fill="#1D1D1D"/>
<path d="M1097.33 571.344C1095.52 568.623 1093.71 567.717 1092.8 565.903C1089.18 563.182 1081.94 557.741 1070.17 557.741C1062.02 557.741 1055.68 560.461 1052.97 561.368C1044.82 565.903 1033.05 577.692 1033.05 600.365C1033.05 603.992 1033.05 617.596 1040.29 627.572C1043.01 631.199 1045.72 633.92 1048.44 636.641C1052.06 639.361 1060.21 644.803 1072.88 644.803C1075.6 644.803 1084.65 643.896 1092.8 639.361C1094.61 638.454 1096.42 636.641 1099.14 634.827H1100.95L1098.24 644.803C1089.18 648.43 1081.03 650.244 1071.07 650.244C1065.64 650.244 1051.16 649.337 1038.48 639.361C1031.24 633.92 1021.28 623.037 1021.28 601.272C1021.28 596.737 1021.28 584.948 1028.52 574.972C1029.43 574.065 1031.24 571.344 1033.05 568.623C1033.95 567.717 1036.67 564.089 1040.29 562.275C1044.82 558.648 1055.68 552.299 1071.98 552.299C1074.7 552.299 1084.65 552.299 1093.71 555.927C1095.52 556.834 1097.33 557.741 1101.86 560.461C1100.05 564.089 1100.05 564.996 1097.33 571.344Z" fill="#1D1D1D"/>
<path d="M1168.85 595.83C1173.38 595.83 1174.29 595.83 1182.43 595.83C1182.43 574.065 1182.43 568.624 1181.53 555.927C1181.53 555.927 1186.06 556.834 1188.77 556.834C1190.58 556.834 1192.39 556.834 1195.11 556.834C1194.2 563.182 1194.2 569.53 1193.3 575.879C1193.3 586.761 1193.3 596.737 1193.3 606.713C1193.3 613.968 1193.3 621.224 1193.3 629.386C1193.3 633.013 1193.3 635.734 1193.3 639.361C1193.3 642.989 1193.3 647.523 1194.2 651.151C1191.49 651.151 1189.68 650.244 1187.87 650.244C1185.15 650.244 1184.25 650.244 1181.53 650.244C1182.43 641.175 1182.43 632.106 1182.43 623.037C1182.43 616.689 1182.43 609.434 1182.43 603.086C1173.38 603.086 1163.42 602.179 1154.37 602.179C1146.22 602.179 1138.07 602.179 1129.92 602.179C1129.92 608.527 1129.92 615.782 1129.92 622.13C1129.92 631.199 1129.92 640.268 1130.83 649.337C1127.21 648.43 1126.3 648.43 1124.49 648.43C1121.77 648.43 1119.96 648.43 1118.15 649.337C1119.06 643.896 1119.06 637.548 1119.06 632.106C1119.06 627.572 1119.06 622.13 1119.06 617.596C1119.06 613.061 1119.06 607.62 1119.06 603.086C1119.06 595.83 1119.06 588.575 1119.06 581.32C1119.06 576.786 1119.06 571.344 1119.06 566.81C1119.06 563.182 1118.15 559.555 1118.15 555.927C1119.06 555.927 1121.77 556.834 1125.4 556.834C1127.21 556.834 1129.02 556.834 1131.73 555.927C1130.83 562.275 1130.83 569.53 1130.83 575.879C1130.83 582.227 1130.83 589.482 1130.83 595.83C1138.07 596.737 1139.88 596.737 1147.12 596.737L1168.85 595.83Z" fill="#1D1D1D"/>
<path d="M1212.31 581.32C1220.46 563.182 1238.57 553.206 1257.58 553.206C1260.3 553.206 1265.73 553.206 1272.97 555.02C1287.46 559.555 1300.14 569.53 1305.57 583.134C1308.28 591.296 1308.28 598.551 1308.28 601.272C1308.28 606.713 1308.28 619.41 1299.23 631.199C1289.27 643.896 1273.88 650.244 1258.49 650.244C1253.06 650.244 1237.66 649.337 1224.99 638.454C1213.22 628.479 1208.69 615.782 1208.69 601.272C1208.69 592.203 1210.5 584.948 1212.31 581.32ZM1236.76 639.361C1240.38 641.175 1247.62 646.617 1258.49 646.617C1261.2 646.617 1268.45 645.71 1275.69 642.082C1284.74 637.548 1296.51 625.758 1296.51 602.179C1296.51 586.761 1291.99 577.692 1287.46 572.251C1285.65 569.53 1282.93 566.81 1280.22 564.996C1273.88 560.461 1264.83 557.741 1256.68 557.741C1242.19 557.741 1228.61 567.717 1223.18 581.32C1220.46 588.575 1219.56 596.737 1219.56 598.551C1219.56 615.782 1223.18 630.292 1236.76 639.361Z" fill="#1D1D1D"/>
<path d="M1398.82 571.344C1397.01 568.623 1395.2 567.717 1394.3 565.903C1390.67 563.182 1383.43 557.741 1371.66 557.741C1363.51 557.741 1357.17 560.461 1354.46 561.368C1346.31 565.903 1334.54 577.692 1334.54 600.365C1334.54 603.992 1334.54 617.596 1341.78 627.572C1344.5 631.199 1347.21 633.92 1349.93 636.641C1353.55 639.361 1361.7 644.803 1374.38 644.803C1377.09 644.803 1386.15 643.896 1394.3 639.361C1396.11 638.454 1397.92 636.641 1400.63 634.827H1402.44L1399.73 644.803C1390.67 648.43 1382.53 650.244 1372.57 650.244C1367.13 650.244 1352.65 649.337 1339.97 639.361C1332.73 633.92 1322.77 623.037 1322.77 601.272C1322.77 596.737 1322.77 584.948 1330.01 574.972C1330.92 574.065 1332.73 571.344 1334.54 568.623C1335.44 567.717 1338.16 564.089 1341.78 562.275C1346.31 558.648 1357.17 552.299 1373.47 552.299C1376.19 552.299 1386.15 552.299 1395.2 555.927C1397.01 556.834 1398.82 557.741 1403.35 560.461C1401.54 564.089 1401.54 564.996 1398.82 571.344Z" fill="#1D1D1D"/>
<path d="M1418.74 581.32C1426.89 563.182 1445 553.206 1464.01 553.206C1466.73 553.206 1472.16 553.206 1479.4 555.02C1493.89 559.555 1506.57 569.53 1512 583.134C1514.71 591.296 1514.71 598.551 1514.71 601.272C1514.71 606.713 1514.71 619.41 1505.66 631.199C1495.7 643.896 1480.31 650.244 1464.92 650.244C1459.49 650.244 1444.09 649.337 1431.42 638.454C1419.65 628.479 1415.12 615.782 1415.12 601.272C1415.12 592.203 1416.93 584.948 1418.74 581.32ZM1443.19 639.361C1446.81 641.175 1454.05 646.617 1464.92 646.617C1467.63 646.617 1474.88 645.71 1482.12 642.082C1491.17 637.548 1502.94 625.758 1502.94 602.179C1502.94 586.761 1498.42 577.692 1493.89 572.251C1492.08 569.53 1489.36 566.81 1486.65 564.996C1480.31 560.461 1471.26 557.741 1463.11 557.741C1448.62 557.741 1435.04 567.717 1429.61 581.32C1426.89 588.575 1425.99 596.737 1425.99 598.551C1425.99 615.782 1429.61 630.292 1443.19 639.361Z" fill="#1D1D1D"/>
<path d="M1579.9 650.244C1569.94 649.337 1559.98 649.337 1550.02 649.337C1543.68 649.337 1538.25 649.337 1531.91 649.337C1531.91 643.896 1532.82 639.361 1532.82 633.92C1532.82 626.665 1532.82 619.41 1533.72 612.155C1533.72 603.993 1533.72 596.737 1533.72 588.575C1533.72 583.134 1533.72 576.786 1533.72 571.344C1533.72 565.903 1532.82 559.555 1532.82 554.113C1534.63 554.113 1536.44 555.02 1540.06 555.02C1541.87 555.02 1543.68 555.02 1546.4 555.02C1545.49 564.089 1545.49 574.065 1544.59 583.134C1543.68 603.086 1544.59 623.037 1544.59 642.989C1551.83 642.989 1559.08 642.989 1567.22 642.989C1571.75 642.989 1575.37 642.989 1579.9 642.082V650.244Z" fill="#1D1D1D"/>
<path d="M1633.32 554.113C1636.03 562.275 1638.75 569.53 1641.47 577.692C1644.18 584.948 1647.81 592.203 1650.52 599.458C1652.33 603.992 1654.14 609.434 1655.95 613.968C1657.76 618.503 1659.58 623.944 1661.39 628.479C1663.2 632.106 1664.1 636.641 1665.91 640.268C1666.82 642.989 1668.63 645.71 1669.53 648.43C1664.1 648.43 1663.2 647.523 1655.05 648.43C1652.33 636.641 1651.43 632.106 1643.28 612.155H1607.97C1604.35 618.503 1600.72 625.758 1598.01 632.106C1595.29 637.548 1593.48 642.989 1591.67 647.523C1590.77 647.523 1588.95 647.523 1587.14 647.523C1585.33 647.523 1584.43 647.523 1582.62 647.523C1585.33 642.989 1588.05 638.455 1589.86 633.92C1592.58 628.479 1596.2 622.13 1598.91 616.689C1602.54 609.434 1607.06 601.272 1610.68 594.017C1613.4 587.668 1616.12 581.32 1619.74 575.879C1621.55 571.344 1624.27 567.717 1626.08 563.182C1627.89 559.555 1628.79 556.834 1630.6 553.206H1633.32V554.113ZM1620.64 587.668C1617.02 594.017 1614.31 601.272 1610.68 607.62C1617.02 607.62 1622.45 608.527 1628.79 608.527C1633.32 608.527 1636.94 608.527 1641.47 608.527C1637.85 597.644 1636.94 592.203 1627.89 573.158C1626.08 576.786 1623.36 582.227 1620.64 587.668Z" fill="#1D1D1D"/>
<path d="M1694.89 584.041C1694.89 578.599 1694.89 574.065 1694.89 568.623C1694.89 565.903 1694.89 564.089 1694.89 561.368C1678.59 561.368 1674.06 561.368 1665.91 562.275V555.02C1677.68 555.927 1678.59 555.927 1690.36 555.927C1700.32 555.927 1711.18 555.927 1722.05 555.927C1726.57 555.927 1731.1 555.927 1735.63 555.02C1735.63 557.741 1735.63 558.648 1735.63 562.275C1730.2 562.275 1725.67 561.368 1720.24 561.368C1715.71 561.368 1711.18 561.368 1707.56 561.368C1707.56 577.692 1706.66 593.11 1706.66 609.434C1706.66 623.037 1706.66 636.641 1707.56 650.244C1702.13 649.337 1701.22 649.337 1694.89 650.244C1695.79 635.734 1695.79 620.317 1695.79 605.806V584.041H1694.89Z" fill="#1D1D1D"/>
<path d="M1760.98 555.02C1760.07 559.554 1760.07 564.089 1760.07 568.623C1760.07 575.879 1760.07 583.134 1760.07 590.389C1760.07 600.365 1760.07 609.434 1760.07 619.41C1760.07 629.385 1760.07 639.361 1760.98 650.244C1759.17 650.244 1756.45 649.337 1754.64 649.337C1753.73 649.337 1751.02 649.337 1748.3 650.244C1749.21 643.896 1749.21 638.454 1749.21 632.106C1749.21 625.758 1749.21 618.503 1749.21 612.154C1749.21 602.179 1749.21 593.11 1749.21 583.134C1749.21 578.599 1749.21 573.158 1749.21 568.623C1749.21 564.089 1749.21 560.461 1748.3 555.927C1753.73 555.02 1755.54 555.02 1760.98 555.02Z" fill="#1D1D1D"/>
<path d="M1831.6 603.992C1821.64 603.086 1818.02 602.179 1800.82 603.086C1800.82 613.061 1800.82 622.13 1800.82 632.106C1800.82 635.734 1800.82 640.268 1800.82 643.896C1807.15 643.896 1812.59 643.896 1818.92 643.896C1824.36 643.896 1829.79 643.896 1835.22 642.989V650.244C1827.07 650.244 1818.02 649.337 1809.87 649.337C1802.63 649.337 1795.38 649.337 1788.14 650.244C1789.05 642.082 1789.05 634.827 1789.05 626.665C1789.05 617.596 1789.05 608.527 1789.05 599.458C1789.05 595.83 1789.05 591.296 1789.05 587.668C1789.05 576.786 1789.05 566.81 1788.14 555.927C1797.19 556.834 1805.34 556.834 1814.4 556.834C1820.73 556.834 1827.98 556.834 1834.32 555.927C1833.41 559.555 1833.41 560.461 1834.32 563.182C1827.98 563.182 1821.64 562.275 1815.3 562.275C1810.78 562.275 1806.25 562.275 1800.82 562.275C1800.82 567.717 1799.91 573.158 1799.91 578.599C1799.91 584.948 1799.91 591.296 1799.91 597.644C1804.44 597.644 1808.96 597.644 1814.4 597.644C1819.83 597.644 1825.26 597.644 1830.69 596.737V603.992H1831.6Z" fill="#1D1D1D"/>
<path d="M1875.06 555.02C1879.58 555.02 1884.11 555.02 1888.64 555.02C1897.69 555.927 1905.84 555.927 1912.18 564.089C1913.99 565.903 1915.8 570.437 1915.8 576.786C1915.8 580.413 1914.89 584.041 1913.99 584.948C1911.27 592.203 1904.93 596.737 1897.69 599.458C1893.16 601.272 1890.45 601.272 1885.92 602.179C1886.83 603.086 1888.64 603.993 1889.54 604.899C1893.16 607.62 1894.97 611.248 1897.69 614.875C1899.5 617.596 1902.22 619.41 1904.03 622.13C1905.84 624.851 1907.65 626.665 1909.46 629.386C1911.27 632.106 1913.99 633.92 1915.8 636.641C1917.61 639.361 1920.33 642.082 1922.14 643.896C1923.95 645.71 1925.76 647.524 1926.66 648.43C1923.95 648.43 1921.23 647.524 1918.51 647.524C1915.8 647.524 1913.99 647.524 1911.27 648.43C1909.46 645.71 1907.65 642.989 1905.84 640.268C1904.03 637.548 1902.22 634.827 1899.5 632.106C1896.79 629.386 1894.97 625.758 1892.26 623.037C1890.45 621.224 1888.64 618.503 1886.83 616.689C1885.01 613.968 1883.2 612.155 1880.49 609.434C1877.77 606.713 1875.06 603.993 1872.34 601.272C1872.34 609.434 1872.34 618.503 1872.34 627.572C1872.34 634.827 1873.24 642.082 1873.24 649.337C1871.43 649.337 1868.72 649.337 1866.91 649.337C1864.19 649.337 1862.38 649.337 1859.66 649.337C1860.57 642.082 1860.57 634.827 1860.57 626.665C1860.57 617.596 1860.57 607.62 1860.57 598.551C1860.57 584.041 1860.57 568.624 1859.66 554.113C1866 555.02 1870.53 555.02 1875.06 555.02ZM1873.24 585.855C1873.24 590.389 1873.24 594.924 1873.24 599.458C1875.96 599.458 1878.68 599.458 1881.39 599.458C1883.2 599.458 1886.83 599.458 1891.35 597.644C1899.5 594.924 1904.03 586.762 1904.03 578.599C1904.03 575.879 1904.03 569.531 1898.6 564.089C1893.16 559.555 1886.83 559.555 1885.01 559.555C1881.39 559.555 1877.77 559.555 1874.15 560.462C1873.24 568.624 1873.24 576.786 1873.24 585.855Z" fill="#1D1D1D"/>
<path d="M667.27 771.768C669.986 774.489 671.797 777.209 675.418 779.023C679.945 780.837 685.378 781.744 687.188 781.744C691.715 781.744 695.337 780.837 696.242 779.93C706.202 775.396 708.012 765.42 708.012 761.792C708.012 760.885 708.012 759.072 708.012 757.258C707.107 752.723 704.391 748.189 697.148 744.561C690.81 740.934 684.472 740.027 679.04 735.492C669.986 729.144 668.175 720.075 668.175 716.447C668.175 710.099 669.986 706.472 670.891 704.658C676.324 695.589 687.188 690.147 697.148 690.147C705.296 690.147 713.445 693.775 716.161 693.775C715.255 694.682 715.255 696.496 714.35 698.31C714.35 700.123 713.445 701.937 713.445 703.751H711.634C710.729 702.844 709.823 701.03 708.918 700.123C706.202 698.31 702.58 694.682 695.337 694.682C692.621 694.682 685.378 694.682 679.945 701.03C679.04 701.937 676.324 705.565 676.324 710.099C676.324 711.913 676.324 714.634 679.04 718.261C683.567 725.516 692.621 728.237 699.864 730.958C701.675 731.865 705.296 733.678 707.107 735.492C710.729 738.213 717.972 743.654 717.972 755.444C717.972 765.42 713.445 774.489 705.296 779.93C701.675 781.744 695.337 785.372 685.378 785.372C679.945 785.372 674.513 784.465 663.648 782.651L666.365 770.861H667.27V771.768Z" fill="#1D1D1D"/>
<path d="M748.753 690.147C747.848 694.682 747.848 699.216 747.848 702.844C747.848 710.099 747.848 717.354 747.848 724.61C747.848 734.585 747.848 743.654 747.848 753.63C747.848 763.606 747.848 773.582 748.753 784.465C746.943 784.465 744.227 783.558 742.416 783.558C741.51 783.558 738.794 783.558 736.078 784.465C736.984 778.116 736.983 772.675 736.983 766.327C736.983 759.978 736.983 752.723 736.983 746.375C736.983 736.399 736.983 727.33 736.983 717.354C736.983 712.82 736.983 707.378 736.983 702.844C736.983 698.31 736.984 694.682 736.078 690.147C742.416 691.054 743.321 691.054 748.753 690.147Z" fill="#1D1D1D"/>
<path d="M772.296 688.334C777.728 694.682 783.16 701.937 789.498 708.285C794.93 714.634 801.268 720.982 807.606 726.423L827.524 747.282C832.051 752.723 837.484 757.258 842.01 762.699C842.01 750.003 842.01 737.306 842.01 724.61C842.01 717.354 842.01 711.006 841.105 704.658C841.105 700.123 840.2 695.589 840.2 691.054C842.01 691.054 842.916 691.054 844.727 691.054C845.632 691.054 847.443 691.054 850.159 691.054C849.254 701.937 849.254 712.82 848.348 723.703C848.348 730.958 848.348 738.213 848.348 745.468C848.348 759.072 848.348 773.582 849.254 787.185H846.537C842.916 781.744 841.105 779.93 836.578 774.489L833.862 770.861L824.808 761.792C820.281 756.351 815.754 751.816 810.322 747.282L792.214 728.237C786.782 722.796 780.444 717.354 775.012 711.913C775.012 725.516 775.012 740.027 775.012 753.63C775.012 764.513 775.917 774.489 775.917 785.372C773.201 785.372 772.296 785.372 766.863 785.372C767.769 778.116 767.769 770.861 768.674 762.699C768.674 758.165 768.674 752.723 768.674 748.189C768.674 740.934 768.674 734.585 768.674 727.33C768.674 714.634 768.674 701.937 767.769 689.241L772.296 688.334Z" fill="#1D1D1D"/>
<path d="M942.51 706.472C940.699 703.751 938.888 702.844 937.983 701.03C934.361 698.31 927.118 692.868 915.348 692.868C907.199 692.868 900.862 695.589 898.146 696.496C889.997 701.03 878.227 712.82 878.227 735.492C878.227 739.12 878.227 752.723 885.47 762.699C888.186 766.327 890.902 769.047 893.619 771.768C897.24 774.489 905.389 779.93 918.064 779.93C920.78 779.93 929.834 779.023 937.983 774.489C939.793 773.582 941.604 771.768 944.32 769.954H946.131L943.415 779.93C934.361 783.558 926.213 785.371 916.253 785.371C910.821 785.371 896.335 784.465 883.659 774.489C876.416 769.047 866.457 758.165 866.457 736.399C866.457 731.865 866.457 720.075 873.7 710.099C874.606 709.192 876.416 706.472 878.227 703.751C879.132 702.844 881.849 699.216 885.47 697.403C889.997 693.775 900.862 687.427 917.159 687.427C919.875 687.427 929.834 687.427 938.888 691.054C940.699 691.961 942.51 692.868 947.036 695.589C945.226 699.216 945.226 700.123 942.51 706.472Z" fill="#1D1D1D"/>
<path d="M1004.98 739.12C995.019 738.213 991.397 737.306 974.195 738.213C974.195 748.189 974.195 757.258 974.195 767.234C974.195 770.861 974.195 775.396 974.195 779.023C980.533 779.023 985.965 779.023 992.303 779.023C997.735 779.023 1003.17 779.023 1008.6 778.116V785.372C1000.45 785.372 991.397 784.465 983.249 784.465C976.006 784.465 968.763 784.465 961.52 785.372C962.425 777.21 962.425 769.954 962.425 761.792C962.425 752.723 962.425 743.654 962.425 734.585C962.425 730.958 962.425 726.423 962.425 722.796C962.425 711.913 962.425 701.937 961.52 691.054C970.573 691.961 978.722 691.961 987.776 691.961C994.113 691.961 1001.36 691.961 1007.69 691.054C1006.79 694.682 1006.79 695.589 1007.69 698.31C1001.36 698.31 995.019 697.403 988.681 697.403C984.154 697.403 979.627 697.403 974.195 697.403C974.195 702.844 973.29 708.285 973.29 713.727C973.29 720.075 973.29 726.423 973.29 732.772C977.817 732.772 982.343 732.772 987.776 732.772C993.208 732.772 998.64 732.772 1004.07 731.865L1004.98 739.12Z" fill="#1D1D1D"/>
<path d="M1100.95 692.868C1100.05 700.123 1099.14 708.285 1099.14 715.541C1099.14 721.889 1099.14 728.237 1099.14 734.585V746.375C1099.14 753.63 1099.14 760.885 1099.14 769.047C1099.14 774.489 1099.14 780.837 1100.05 786.278C1096.42 786.278 1094.61 785.371 1087.37 786.278C1088.28 772.675 1088.28 759.072 1088.28 744.561C1088.28 730.958 1088.28 717.354 1088.28 702.844L1063.83 715.541L1057.49 710.099L1070.17 706.472C1075.6 703.751 1081.94 701.937 1087.37 699.216C1091.9 697.403 1095.52 694.682 1100.95 692.868Z" fill="#1D1D1D"/>
<path d="M1146.22 729.144C1138.98 723.703 1138.07 715.541 1138.07 712.82C1138.07 710.099 1138.98 704.658 1143.5 699.217C1147.12 695.589 1152.56 691.054 1163.42 691.054C1164.33 691.054 1167.04 691.054 1170.66 691.961C1181.53 693.775 1186.06 699.217 1188.77 703.751C1189.68 705.565 1190.58 708.285 1190.58 711.913C1190.58 714.634 1189.68 719.168 1186.06 724.61C1182.43 728.237 1179.72 730.051 1175.19 731.865C1180.62 733.679 1183.34 734.585 1185.15 736.399C1188.77 738.213 1195.11 744.561 1195.11 756.351C1195.11 758.165 1195.11 761.792 1194.2 765.42C1190.58 779.023 1178.81 785.372 1165.23 785.372C1154.37 785.372 1146.22 780.837 1142.6 778.116C1137.17 773.582 1134.45 765.42 1134.45 758.165C1134.45 752.723 1136.26 746.375 1138.98 741.841C1139.88 740.934 1141.69 738.213 1144.41 736.399C1146.22 734.585 1148.03 733.679 1153.46 731.865C1151.65 731.865 1148.03 730.958 1146.22 729.144ZM1152.56 778.116C1154.37 779.023 1157.99 781.744 1163.42 781.744C1165.23 781.744 1167.95 781.744 1172.48 779.023C1178.81 775.396 1180.62 770.861 1182.43 763.606C1182.43 762.699 1183.34 759.072 1183.34 755.444C1183.34 750.91 1182.43 746.375 1178.81 741.841C1177 739.12 1172.48 734.585 1164.33 734.585C1161.61 734.585 1157.99 734.585 1153.46 738.213C1148.03 742.748 1146.22 750.003 1146.22 757.258C1144.41 764.513 1147.12 773.582 1152.56 778.116ZM1155.27 728.237C1156.18 729.144 1158.89 730.051 1163.42 730.051C1165.23 730.051 1169.76 730.051 1173.38 725.517C1177 721.889 1177.91 716.448 1177.91 711.006C1177.91 705.565 1176.1 701.937 1174.29 701.03C1171.57 697.403 1167.95 695.589 1163.42 695.589C1162.52 695.589 1159.8 695.589 1156.18 697.403C1148.94 701.03 1148.94 709.192 1148.03 711.913C1148.94 719.168 1149.84 724.61 1155.27 728.237Z" fill="#1D1D1D"/>
<path d="M1256.68 691.961C1255.77 702.844 1255.77 713.727 1255.77 725.517C1255.77 733.679 1255.77 742.748 1255.77 750.91H1268.45C1268.45 751.817 1268.45 753.63 1268.45 755.444C1268.45 756.351 1268.45 757.258 1268.45 759.072L1255.77 758.165C1255.77 763.606 1255.77 769.048 1255.77 774.489C1255.77 778.116 1255.77 781.744 1256.68 785.372C1253.96 785.372 1253.05 784.465 1250.34 784.465C1248.53 784.465 1246.72 784.465 1244 784.465C1244.91 775.396 1245.81 773.582 1245.81 758.165C1236.76 758.165 1226.8 758.165 1217.74 758.165C1213.22 758.165 1207.78 758.165 1203.26 759.072V756.351C1211.41 746.375 1218.65 736.399 1225.89 725.517C1234.04 714.634 1241.28 702.844 1248.53 691.961H1256.68ZM1245.81 750.91V704.658C1241.28 710.099 1236.76 716.448 1233.14 722.796C1226.8 731.865 1220.46 740.934 1214.12 750.003L1245.81 750.91Z" fill="#1D1D1D"/>
<path d="M1282.03 771.768C1284.75 775.396 1289.27 780.837 1300.14 780.837C1307.38 780.837 1311.91 778.116 1313.72 776.303C1319.15 771.768 1322.77 761.792 1322.77 754.537C1322.77 750.91 1321.87 740.934 1312.81 735.492C1310.1 733.679 1305.57 732.772 1302.85 732.772C1297.42 732.772 1292.89 734.585 1288.37 737.306L1286.56 735.492C1288.37 729.144 1288.37 728.237 1288.37 720.982C1288.37 716.448 1288.37 711.913 1288.37 707.379C1288.37 701.937 1287.46 696.496 1287.46 691.054C1293.8 691.961 1300.14 691.961 1306.48 691.961C1315.53 691.961 1323.68 691.961 1332.73 691.054C1331.83 694.682 1331.83 695.589 1331.83 701.937C1324.58 701.03 1317.34 701.03 1310.1 701.03C1305.57 701.03 1300.14 701.03 1295.61 701.03C1294.71 708.286 1294.7 714.634 1294.7 721.889C1294.7 724.61 1294.7 727.33 1294.7 730.051C1300.14 728.237 1303.76 727.33 1309.19 727.33C1311 727.33 1317.34 727.33 1322.77 730.958C1331.83 735.492 1335.45 743.654 1335.45 754.537C1335.45 756.351 1335.45 761.792 1332.73 766.327C1327.3 779.023 1314.62 785.372 1301.95 785.372C1294.71 785.372 1287.46 783.558 1285.65 781.744C1283.84 780.837 1282.93 780.837 1280.22 779.023L1282.03 771.768Z" fill="#1D1D1D"/>
</g>
<defs>
<clipPath id="clip0_72_5007">
<rect width="2000" height="787.185" fill="white"/>
</clipPath>
</defs>
</svg>
