<svg width="2000" height="581" viewBox="0 0 2000 581" fill="none" xmlns="http://www.w3.org/2000/svg">
<g clip-path="url(#clip0_72_2448)">
<path fill-rule="evenodd" clip-rule="evenodd" d="M1822.96 6.96566e-05C1829.38 1.28904 1834.51 2.57802 1840.92 3.867C1889.67 12.8898 1932.01 32.2244 1969.21 65.7378C1971.78 68.3158 1974.34 70.8937 1978.19 74.7606C1955.1 101.829 1928.16 127.609 1905.07 154.677C1903.78 153.388 1901.22 152.099 1899.94 149.521C1874.28 121.164 1843.49 105.696 1806.29 100.54C1793.46 99.2512 1780.63 99.2512 1767.8 101.829C1748.56 106.985 1734.45 117.297 1728.03 137.92C1722.9 157.255 1729.31 176.59 1745.99 188.19C1760.1 198.502 1776.78 206.236 1793.46 211.392C1822.96 221.704 1853.75 232.016 1881.98 243.616C1911.48 255.217 1939.7 271.974 1961.51 296.464C1982.04 319.666 1994.87 345.445 1998.72 376.381C2005.13 420.206 1993.59 460.164 1970.49 496.256C1956.38 518.168 1935.86 534.925 1914.05 547.815C1885.82 563.282 1855.04 572.305 1821.68 574.883C1807.57 576.172 1792.17 577.461 1778.06 576.172C1735.73 574.883 1694.68 567.149 1656.19 547.815C1627.97 533.636 1602.31 514.301 1581.78 488.522C1581.78 487.233 1580.5 487.233 1580.5 485.944C1604.87 460.164 1629.25 433.096 1654.91 406.027C1657.47 409.894 1661.32 412.472 1663.89 415.05C1680.56 433.096 1698.52 448.563 1720.33 458.875C1735.73 465.32 1751.12 469.187 1767.8 471.765C1783.19 474.343 1799.87 471.765 1815.27 469.187C1830.66 465.32 1843.49 457.586 1852.47 444.697C1869.15 418.917 1862.73 390.56 1838.36 372.514C1826.81 364.78 1813.98 358.335 1799.87 351.89C1778.06 342.867 1756.25 336.423 1734.45 328.689C1712.64 320.955 1690.83 311.932 1670.3 299.042C1634.38 277.13 1610.01 246.194 1599.74 203.658C1592.05 164.989 1597.18 128.898 1615.14 94.0953C1636.95 51.5591 1671.58 23.2016 1715.2 7.73392C1728.03 2.57802 1740.86 6.96566e-05 1754.97 -1.28891C1756.25 -1.28891 1757.54 -2.57788 1758.82 -2.57788L1822.96 6.96566e-05ZM729.955 407.316C732.521 407.316 733.804 408.605 735.087 408.605C768.441 408.605 801.796 408.605 835.151 408.605C835.151 408.605 835.151 408.605 836.434 408.605C836.434 408.605 836.434 408.605 837.717 407.316L785.119 277.13H782.553C783.836 274.552 729.955 407.316 729.955 407.316ZM801.796 6.96566e-05C806.928 3.867 810.776 10.3119 814.625 16.7567C831.302 55.426 847.98 95.3842 863.374 134.053C878.769 170.145 894.163 204.947 908.275 241.038C924.952 282.286 942.912 322.244 959.59 363.491C972.418 393.138 985.247 424.073 998.076 453.719C1013.47 489.811 1028.86 525.902 1044.26 561.993C1045.54 564.571 1045.54 567.149 1046.82 569.727H903.143C898.012 555.548 891.597 541.37 885.183 525.902C883.9 520.746 881.334 516.879 880.051 511.723C878.768 506.567 874.92 503.989 869.788 503.989C860.808 503.989 851.828 503.989 842.848 503.989H704.298C701.732 503.989 700.449 503.989 697.883 503.989C694.035 503.989 691.469 505.278 688.903 510.434C682.489 525.902 676.074 541.37 669.66 556.837C668.377 560.704 665.811 564.571 664.529 568.438H543.938C543.938 565.86 545.221 563.282 545.221 560.704C568.313 506.567 591.405 451.141 615.779 397.004C644.003 329.978 672.226 262.951 701.732 195.924C718.409 154.677 736.37 114.719 753.047 73.4717C760.744 54.137 769.724 34.8024 777.421 16.7567C779.987 9.0229 783.836 2.57802 791.533 -1.28891L801.796 6.96566e-05ZM0 6.44495C10.263 7.73392 17.9602 12.8898 23.0917 19.3347C50.0321 46.4032 76.9724 73.4717 103.913 100.54C148.813 146.943 194.997 193.346 239.897 239.749C242.463 242.327 243.746 243.616 246.312 246.194C248.878 243.616 251.443 242.327 254.009 239.749C325.85 166.278 397.691 92.8063 468.249 20.6237C474.663 14.1788 482.361 9.0229 491.341 7.73392L492.624 9.0229C492.624 9.0229 492.624 9.0229 492.624 10.3119C492.624 11.6008 492.624 12.8898 492.624 14.1788V569.727C484.926 572.305 397.691 572.305 378.448 571.016V301.62C369.468 309.354 363.053 317.088 355.356 323.533C347.659 331.267 339.962 339.001 333.547 346.734L311.738 368.647L289.929 390.56C282.232 398.293 274.535 406.027 268.121 413.761C260.423 421.495 254.009 429.229 246.312 436.963L115.459 302.909C114.176 302.909 114.176 304.198 114.176 304.198C114.176 304.198 114.176 304.198 114.176 305.487C114.176 306.776 114.176 306.776 114.176 308.065C114.176 395.715 114.176 482.077 114.176 568.438C114.176 568.438 114.176 568.438 114.176 569.727C106.479 571.016 17.9602 572.305 1.28287 571.016V6.44495H0ZM1227.71 108.274C1226.43 122.453 1226.43 250.061 1227.71 259.084C1250.8 259.084 1273.89 260.373 1296.99 256.506C1316.23 252.639 1331.62 243.616 1343.17 226.86C1349.58 216.548 1352.15 204.947 1354.71 192.057C1356 175.301 1353.43 158.544 1345.73 143.076C1332.91 121.164 1312.38 110.852 1288.01 109.563C1271.33 108.274 1254.65 108.274 1237.97 108.274C1235.41 108.274 1231.56 108.274 1227.71 108.274ZM1096.86 568.438V9.0229C1099.42 9.0229 1101.99 7.73392 1104.55 7.73392C1163.57 7.73392 1222.58 7.73392 1281.59 7.73392C1311.1 7.73392 1340.6 10.3119 1368.83 18.0457C1404.75 28.3575 1434.25 47.6922 1457.34 77.3386C1475.3 100.54 1484.28 127.609 1486.85 157.255C1489.42 180.457 1486.85 202.369 1480.44 224.282C1470.17 256.506 1450.93 282.286 1423.99 302.909C1421.42 305.487 1417.58 306.776 1413.73 310.643C1418.86 314.51 1423.99 318.377 1427.84 322.244C1444.52 335.134 1457.34 353.179 1467.61 371.225C1481.72 395.715 1490.7 421.495 1499.68 448.563C1511.23 484.655 1524.05 519.457 1535.6 555.548C1536.88 560.704 1538.17 564.571 1540.73 571.016H1406.03C1403.46 571.016 1402.18 571.016 1399.62 571.016C1395.77 571.016 1394.48 569.727 1393.2 565.86C1389.35 547.815 1385.5 529.769 1380.37 511.723C1371.39 475.632 1361.13 439.541 1344.45 406.027C1332.91 385.404 1317.51 369.936 1293.14 364.78C1285.44 363.491 1279.03 362.202 1271.33 362.202C1258.5 362.202 1244.39 362.202 1231.56 362.202C1231.56 360.913 1230.28 360.913 1228.99 360.913C1227.71 362.202 1227.71 362.202 1227.71 362.202C1227.71 362.202 1227.71 362.202 1227.71 363.491V364.78C1227.71 366.069 1227.71 366.069 1227.71 367.358C1227.71 434.385 1227.71 501.411 1227.71 568.438C1227.71 568.438 1227.71 568.438 1227.71 569.727C1218.73 569.727 1108.4 571.016 1096.86 568.438Z" fill="#1D1D1D"/>
</g>
<defs>
<clipPath id="clip0_72_2448">
<rect width="2000" height="580.039" fill="white"/>
</clipPath>
</defs>
</svg>
