<svg width="2000" height="579" viewBox="0 0 2000 579" fill="none" xmlns="http://www.w3.org/2000/svg">
<g clip-path="url(#clip0_72_4807)">
<mask id="mask0_72_4807" style="mask-type:luminance" maskUnits="userSpaceOnUse" x="-58" y="-19" width="2126" height="616">
<path d="M2067.64 -18.0703H-57.0703V596.091H2067.64V-18.0703Z" fill="white"/>
</mask>
<g mask="url(#mask0_72_4807)">
<path d="M1755.18 184.854C1755.18 175.612 1747.7 168.128 1738.44 168.128H1713.66C1704.41 168.128 1696.94 175.644 1696.94 184.89L1696.95 443.517C1696.95 452.758 1704.43 460.25 1713.67 460.25H1738.44C1747.7 460.25 1755.18 452.722 1755.18 443.489V184.854Z" fill="#1D1D1D"/>
</g>
<mask id="mask1_72_4807" style="mask-type:luminance" maskUnits="userSpaceOnUse" x="-58" y="-19" width="2126" height="616">
<path d="M2067.64 -18.0703H-57.0703V596.091H2067.64V-18.0703Z" fill="white"/>
</mask>
<g mask="url(#mask1_72_4807)">
<path d="M1786.77 191.732V204.023C1786.77 209.116 1790.93 213.221 1796.03 213.221H1966.98C1974.78 213.221 1981.1 206.937 1981.1 199.152V178.333C1981.1 170.552 1974.7 163.509 1966.95 164.272C1966.95 164.272 1801.71 180.448 1796.39 181.053C1790.23 181.744 1786.77 186.635 1786.77 191.732Z" fill="#1D1D1D"/>
</g>
<mask id="mask2_72_4807" style="mask-type:luminance" maskUnits="userSpaceOnUse" x="-58" y="-19" width="2126" height="616">
<path d="M2067.64 -18.0703H-57.0703V596.091H2067.64V-18.0703Z" fill="white"/>
</mask>
<g mask="url(#mask2_72_4807)">
<path d="M1648.36 460.262C1605.84 460.262 1579.07 428.075 1579.07 392.252L1579.03 288.767H1566.86C1560.38 288.767 1555.11 283.547 1555.11 277.066V259.75C1555.11 253.273 1560.4 248.065 1566.89 248.065L1579.03 248.085L1579.02 184.464C1579.02 175.451 1586.3 168.152 1595.33 168.152H1619.49C1628.5 168.152 1635.8 175.503 1635.8 184.512V248.089L1673.48 248.077C1679.98 248.077 1685.26 253.289 1685.26 259.762V277.086C1685.26 283.563 1679.99 288.779 1673.51 288.779L1635.81 288.775L1635.84 384.491C1635.84 403.287 1647.26 416.117 1667.64 416.117L1671.07 416.096C1678.12 416.096 1683.84 421.751 1683.84 428.769V447.578C1683.84 454.612 1678.13 460.27 1671.09 460.27H1648.36V460.262Z" fill="#1D1D1D"/>
</g>
<mask id="mask3_72_4807" style="mask-type:luminance" maskUnits="userSpaceOnUse" x="-58" y="-19" width="2126" height="616">
<path d="M2067.64 -18.0703H-57.0703V596.091H2067.64V-18.0703Z" fill="white"/>
</mask>
<g mask="url(#mask3_72_4807)">
<path d="M1250.11 284.899C1275.5 284.899 1297.41 302.925 1299.62 327.307H1201C1203.21 302.929 1224.74 284.903 1250.11 284.899V240.625C1181.38 240.625 1142.81 294.313 1142.81 350.903C1142.81 411.185 1184.11 464.271 1250.57 464.271C1296.05 464.271 1340.9 440.355 1349.36 401.08C1350.51 395.779 1346.93 388.825 1339.45 388.797H1306.94C1301.05 388.797 1296.23 391.626 1293.32 395.88C1284.03 409.483 1270.4 416.723 1250.25 416.723C1221.79 416.723 1202.05 394.335 1200.57 369.523L1338.77 369.515C1351.51 369.515 1357.2 362.621 1357.2 350.887C1357.2 295.718 1324.48 240.621 1250.11 240.621V284.899H1250.11Z" fill="#1D1D1D"/>
</g>
<mask id="mask4_72_4807" style="mask-type:luminance" maskUnits="userSpaceOnUse" x="-58" y="-19" width="2126" height="616">
<path d="M2067.64 -18.0703H-57.0703V596.091H2067.64V-18.0703Z" fill="white"/>
</mask>
<g mask="url(#mask4_72_4807)">
<path d="M1879.94 284.899C1905.31 284.899 1927.21 302.925 1929.44 327.307H1830.8C1833.02 302.929 1854.56 284.903 1879.94 284.899V240.625C1811.19 240.625 1772.63 294.313 1772.63 350.903C1772.63 411.185 1813.93 464.271 1880.38 464.271C1925.87 464.271 1970.71 440.355 1979.17 401.08C1980.33 395.779 1976.74 388.825 1969.27 388.797H1936.76C1930.87 388.797 1926.05 391.626 1923.13 395.88C1913.85 409.483 1900.2 416.723 1880.07 416.723C1851.61 416.723 1831.87 394.335 1830.39 369.523L1968.59 369.515C1981.32 369.515 1987.02 362.621 1987.02 350.887C1987.02 295.718 1954.29 240.621 1879.94 240.621V284.899Z" fill="#1D1D1D"/>
</g>
<mask id="mask5_72_4807" style="mask-type:luminance" maskUnits="userSpaceOnUse" x="-58" y="-19" width="2126" height="616">
<path d="M2067.64 -18.0703H-57.0703V596.091H2067.64V-18.0703Z" fill="white"/>
</mask>
<g mask="url(#mask5_72_4807)">
<path d="M1532.55 171.033H1084.85C1074.66 171.033 1066.46 179.264 1066.46 189.428L1067.99 364.908C1067.99 364.908 971.511 191.001 966.483 182.125C961.756 173.77 951.603 166.093 937.55 166.093H900.732C890.551 166.093 882.309 174.328 882.309 184.496L882.321 441.839C882.321 452 890.563 460.242 900.744 460.242H924.344C934.54 460.242 942.755 451.96 942.755 441.803L941.27 261.391C941.27 261.391 1038.67 437.04 1042.84 443.962C1048.45 453.304 1057.98 460.242 1071.76 460.242L1105.57 460.246C1115.75 460.246 1123.98 451.996 1123.98 441.839L1123.96 214.637L1532.57 214.649C1539.52 214.649 1545.16 209.055 1545.16 202.117V183.549C1545.16 176.619 1539.5 171.033 1532.55 171.033Z" fill="#1D1D1D"/>
</g>
<mask id="mask6_72_4807" style="mask-type:luminance" maskUnits="userSpaceOnUse" x="-58" y="-19" width="2126" height="616">
<path d="M2067.64 -18.0703H-57.0703V596.091H2067.64V-18.0703Z" fill="white"/>
</mask>
<g mask="url(#mask6_72_4807)">
<path d="M1460.09 282.764C1479.54 282.764 1494.12 289.811 1499.35 301.986C1501.87 307.833 1506.75 308.964 1513.46 308.964H1540.23C1544.65 308.964 1549.73 305.168 1549.73 299.398C1549.73 268.334 1512.62 240.605 1460.06 240.605C1405.7 240.605 1369.99 266.46 1369.99 307.62C1369.99 339.129 1394.93 357.878 1425.59 365.871C1439.57 369.519 1463.43 375.414 1475.05 378.448C1487.58 381.726 1498.77 385.55 1498.77 396.253C1498.77 413.159 1480.93 418.91 1461.43 418.91C1442.97 418.91 1424.56 410.675 1419.29 397.525C1416.24 389.92 1410.89 388.809 1402.78 388.809H1375.55C1370.81 388.809 1365.34 392.882 1365.34 399.066V402.561C1365.34 432.63 1405.75 464.103 1461.49 464.103C1501.02 464.103 1556.09 447.698 1556.09 394.804C1556.09 364.17 1535.54 342.95 1502.11 334.478C1489.05 331.168 1457.63 323.186 1450.8 321.428C1438.62 318.29 1427.24 314.326 1427.24 303.904C1427.24 288.121 1441.86 282.764 1460.09 282.764Z" fill="#1D1D1D"/>
</g>
<mask id="mask7_72_4807" style="mask-type:luminance" maskUnits="userSpaceOnUse" x="-58" y="-19" width="2126" height="616">
<path d="M2067.64 -18.0703H-57.0703V596.091H2067.64V-18.0703Z" fill="white"/>
</mask>
<g mask="url(#mask7_72_4807)">
<path d="M469.019 111.566C473.966 111.566 477.976 107.556 477.976 102.609C477.976 97.6627 473.966 93.6526 469.019 93.6526C464.073 93.6526 460.062 97.6627 460.062 102.609C460.062 107.556 464.073 111.566 469.019 111.566Z" fill="#1D1D1D"/>
</g>
<mask id="mask8_72_4807" style="mask-type:luminance" maskUnits="userSpaceOnUse" x="-58" y="-19" width="2126" height="616">
<path d="M2067.64 -18.0703H-57.0703V596.091H2067.64V-18.0703Z" fill="white"/>
</mask>
<g mask="url(#mask8_72_4807)">
<path d="M348.506 95.7071C352.688 95.7071 356.078 92.3295 356.078 88.1629C356.078 83.9963 352.688 80.6187 348.506 80.6187C344.324 80.6187 340.934 83.9963 340.934 88.1629C340.934 92.3295 344.324 95.7071 348.506 95.7071Z" fill="#1D1D1D"/>
</g>
<mask id="mask9_72_4807" style="mask-type:luminance" maskUnits="userSpaceOnUse" x="-58" y="-19" width="2126" height="616">
<path d="M2067.64 -18.0703H-57.0703V596.091H2067.64V-18.0703Z" fill="white"/>
</mask>
<g mask="url(#mask9_72_4807)">
<path d="M258.176 279.947L254.508 276.011C264.757 266.512 275.612 251.355 277.357 242.475C278.99 234.196 290.917 235.517 288.65 244.513C285.748 256.006 271.639 269.903 258.176 279.947Z" fill="#1D1D1D"/>
</g>
<mask id="mask10_72_4807" style="mask-type:luminance" maskUnits="userSpaceOnUse" x="-58" y="-19" width="2126" height="616">
<path d="M2067.64 -18.0703H-57.0703V596.091H2067.64V-18.0703Z" fill="white"/>
</mask>
<g mask="url(#mask10_72_4807)">
<path d="M181.718 98.8373C162.853 106.984 160.081 126.286 173.323 137.875C189.274 151.828 215.583 139.681 213.043 118.324C234.447 119.411 248.24 97.3445 244.845 81.8708C254.367 73.7166 255.314 56.3448 243.882 49.5109C231.654 42.1954 220.113 45.0044 212.778 59.1057C193.191 57.6851 174.411 73.0706 181.718 98.8373L172.637 94.8806C160.67 69.8963 181.622 44.3784 207.328 50.2573C212.509 37.8574 231.646 24.98 252.321 37.4722C268.834 47.4362 272.321 73.1789 254.765 85.667C263.035 109.68 246.55 129.319 221.434 127.076C218.48 157.967 189.286 161.944 170.422 147.285C159.776 139.006 155.406 127.53 153.371 118.866C151.216 109.696 151.188 101.486 142.135 92.0475C135.305 84.9246 123.094 85.1654 123.094 85.1654C123.094 62.7253 102.046 42.1793 75.9302 52.1313C66.6845 44.1697 55.2397 43.3792 47.0374 53.2188C42.2821 58.9331 39.6456 73.9494 54.3448 80.8235C53.5784 101.281 69.2126 114.339 92.058 112.525C92.9649 123.392 105.04 133.497 115.742 134.945L115.646 140.407C104.213 139.319 98.0452 143.296 90.4207 152.714C63.5745 151.442 44.7661 163.369 45.5486 182.602C26.6719 186.174 23.1406 205.905 33.843 216.407C44.5453 226.905 60.2358 222.788 65.5809 210.247C84.6381 213.875 101.452 200.251 102.223 184.549C120 184.549 127.789 177.514 130.702 161.194L137.42 161.735C139.398 179.32 131.252 196.001 110.024 194.007C109.474 214.986 89.0724 226.724 70.0312 219.485C61.1427 236.134 40.7692 242.8 23.6903 226.54C7.17729 210.837 13.2087 183.959 34.79 177.438C35.2836 156.876 50.5205 137.329 80.0996 144.857C80.0996 144.857 83.9038 135.672 93.1495 135.126C86.9817 132.598 82.3107 129.203 81.0466 122.863C58.7349 127.618 39.774 107.116 44.8583 86.4776C24.7176 75.8916 24.4006 56.0519 34.3927 44.258C44.7901 31.9705 62.1298 29.2578 77.6397 42.4923C103.892 27.9656 133.595 45.7508 131.782 75.6147C150.153 74.3988 161.304 90.4183 159.258 107.116C162.296 99.7643 165.827 96.3533 172.629 94.8766L181.718 98.8373Z" fill="#1D1D1D"/>
</g>
<mask id="mask11_72_4807" style="mask-type:luminance" maskUnits="userSpaceOnUse" x="-58" y="-19" width="2126" height="616">
<path d="M2067.64 -18.0703H-57.0703V596.091H2067.64V-18.0703Z" fill="white"/>
</mask>
<g mask="url(#mask11_72_4807)">
<path d="M226.839 62.9941L231.289 66.1603C222.662 84.2946 207.425 103.568 194.359 114.163L189.387 110.427C198.632 95.3942 218.496 70.5986 226.839 62.9941Z" fill="#1D1D1D"/>
</g>
<mask id="mask12_72_4807" style="mask-type:luminance" maskUnits="userSpaceOnUse" x="-58" y="-19" width="2126" height="616">
<path d="M2067.64 -18.0703H-57.0703V596.091H2067.64V-18.0703Z" fill="white"/>
</mask>
<g mask="url(#mask12_72_4807)">
<path d="M98.3234 162.646L101.321 167.08C90.4421 178.208 70.3134 193.056 59.611 198.213L55.4336 193.694C65.7788 182.562 85.5503 167.983 98.3234 162.646Z" fill="#1D1D1D"/>
</g>
<mask id="mask13_72_4807" style="mask-type:luminance" maskUnits="userSpaceOnUse" x="-58" y="-19" width="2126" height="616">
<path d="M2067.64 -18.0703H-57.0703V596.091H2067.64V-18.0703Z" fill="white"/>
</mask>
<g mask="url(#mask13_72_4807)">
<path d="M124.344 108.729L119.095 115.222C104.861 105.9 76.739 80.8274 70.3906 71.7743L74.8289 67.2759C88.4326 74.154 115.002 97.7819 124.344 108.729Z" fill="#1D1D1D"/>
</g>
<mask id="mask14_72_4807" style="mask-type:luminance" maskUnits="userSpaceOnUse" x="-58" y="-19" width="2126" height="616">
<path d="M2067.64 -18.0703H-57.0703V596.091H2067.64V-18.0703Z" fill="white"/>
</mask>
<g mask="url(#mask14_72_4807)">
<path d="M97.9271 346.605C99.5604 354.743 98.188 363.748 105.536 372.537C108.12 375.622 122.394 394.375 132.739 404.058C118.686 409.576 90.5635 420.984 70.3385 423.512C66.2855 424.018 61.7268 426.863 57.9186 429.034C55.3785 433.364 52.7661 441.065 51.6665 449.781C50.884 456.005 50.9803 462.935 50.9803 470.01C50.9803 476.226 54.291 495.833 61.2694 508.971C68.2638 522.117 74.9694 528.004 83.2239 531.852C84.8451 531.13 88.4447 530.588 94.0627 530.472C109.34 530.135 121.306 538.55 126.567 545.789C128.586 548.558 132.639 549.116 137.956 549.116C150.291 549.116 163.839 545.071 176.712 540.175C179.485 537.916 187.238 532.755 194.859 526.78C202.471 520.805 244.923 484.873 263.688 475.824C273.579 481.162 289.804 488.044 306.577 488.044C307.553 488.044 310.783 488.092 314.202 487.317C319.439 486.142 326.14 483.806 334.603 482.165C349.74 479.211 367.493 476.623 372.658 476.703C386.574 476.932 427.378 477.975 437.049 477.975C447.201 477.975 461.668 477.096 467.189 476.555C475.721 473.746 494.762 468.497 512.993 460.082C531.183 452.032 569.486 425.503 575.75 419.443C578.772 416.722 581.493 413.757 583.483 411.088C584.238 410.065 584.498 409.66 584.498 408.841C584.498 408.031 584.306 382.031 584.306 382.031C584.306 382.031 593.443 371.886 596.946 368.387C597.287 368.046 597.316 367.593 597.263 367.26C595.682 362.047 594.117 345.867 595.008 329.478L585.746 325.164C585.389 345.566 577.929 362.926 570.939 373.732C557.159 375.903 530.85 384.05 521.384 394.792L526.592 396.269C535.481 391.377 544.999 387.942 555.882 387.942C565.497 387.942 569.747 390.47 569.747 393.163C569.747 395.057 567.945 399.612 567.235 401.032C566.408 402.689 565.862 404.768 564.237 406.534C551.268 420.587 536.556 432.589 518.655 442.541C506.564 449.267 495.175 453.822 477.342 458.85C472.013 460.355 464.706 462.514 459.938 464.147C453.233 463.962 418.132 462.923 397.634 462.923C377.136 462.923 334.876 465.904 321.457 469.303C315.354 470.84 313.845 473.28 306.77 473.28C293.528 473.28 276.164 466.583 265.502 461.422C263.961 461.876 260.116 463.581 256.256 465.495C248.683 469.251 231.853 492.562 222.062 485.499C217.074 495.728 195.493 505.411 188.117 516.018C188.927 510.452 197.639 474.476 198.446 467.277C198.599 465.993 198.723 464.969 197.912 463.609C190.027 450.487 168.016 442.144 155.596 439.716C151.957 439.002 150.159 438.492 147.711 437.947L128.12 432.044L109.958 437.947L130.925 441.96L104.312 459.536C108.943 457.77 137.599 449.833 139.717 449.199C142.065 448.505 145.199 447.834 148.606 449.022C152.507 450.383 163.566 452.911 170.163 455.198C174.024 456.534 180.356 463.613 181.993 467.417C182.663 468.978 182.912 472.281 183.354 479.633C183.626 484.247 182.435 490.656 181.319 495.66C178.378 508.718 172.43 518.903 170.56 522.53C167.976 527.559 164.377 529.196 160.849 530.841C155.051 533.554 147.976 535.279 140.091 535.368C134.677 535.428 131.066 535.131 128.742 532.021C121.487 522.245 103.533 512.739 85.2183 516.27C73.9662 509.485 62.8264 487.578 62.8264 470.122C62.8264 459.672 68.1274 443.187 70.9726 434.897C89.2754 432.461 125.885 418.54 143.718 410.462C147.426 410.286 157.679 406.658 167.471 406.658C191.416 406.658 215.172 427.569 229.594 441.691C231.958 437.798 236.396 431.915 248.635 431.915C265.606 431.915 275.305 447.301 280.165 463.107L288.997 456.711C287.46 447.658 282.721 437.746 275.574 430.615C269.735 424.784 258.579 419.941 249.867 419.941C244.606 419.941 239.165 421.117 235.718 421.117C223.611 421.117 218.679 415.731 209.738 409.576C200.079 402.918 182.11 393.267 169.276 393.267C161.034 393.267 157.31 396.489 150.508 396.526C140.48 396.566 136.772 392.424 131.96 386.457C129.87 383.853 119.717 374.868 116.996 371.248C115.443 369.174 112.683 360.682 111.679 356.433L97.9271 346.605Z" fill="#1D1D1D"/>
</g>
<mask id="mask15_72_4807" style="mask-type:luminance" maskUnits="userSpaceOnUse" x="-58" y="-19" width="2126" height="616">
<path d="M2067.64 -18.0703H-57.0703V596.091H2067.64V-18.0703Z" fill="white"/>
</mask>
<g mask="url(#mask15_72_4807)">
<path d="M111.694 356.449C114.608 359.551 117.409 362.986 121.048 365.743C124.564 368.407 128.99 370.731 133.155 373.074C139.046 376.397 145.724 380.197 152.333 382.312C158.128 384.058 165.672 384.78 172.735 384.78C182.803 384.78 194.689 382.697 204.525 387.288C211.122 390.354 211.559 397.312 216.808 399.351C224.97 402.525 247.651 403.247 260.22 403.247C285.116 403.247 312.042 400.093 327.965 396.297L320.204 387.774C309.185 389.539 276.885 393.042 262.049 393.042C241.166 393.042 221.439 389.708 221.439 381.088C221.439 375.117 227.88 366.497 240.123 366.497C253.269 366.497 273.137 374.439 276.821 375.526C280.489 376.614 281.986 376.337 284.293 375.257L292.002 371.301C281.793 366.545 246.211 354.346 233.831 354.346C227.98 354.346 224.79 355.189 220.986 360.073C216.218 366.18 203.525 371.75 183.26 371.75C172.145 371.75 156.238 369.756 152.746 368.327C146.647 365.819 134.692 358.897 127.04 353.395C117.188 346.304 108.588 338.431 102.681 329.229C100.84 326.352 100.085 323.254 100.113 320.405C100.141 318.005 100.799 315.79 101.048 314.025C102.806 316.468 104.716 318.234 107.16 320.521C117.862 330.927 133.661 338.732 149.901 341.842C154.544 342.729 158.653 343.415 163.212 343.415C170.15 343.415 176.539 339.707 180.616 336.083L174.243 328.68C172.181 329.298 167.923 329.298 165.106 329.298C141.53 329.298 111.606 313.912 104.728 296.099C104.042 294.345 103.227 293.386 103.901 291.757C104.588 290.132 105.438 286.669 105.948 283.474C107.32 285.064 110.178 287.451 113.805 289.775C122.557 295.393 139.263 303.15 142.546 305.196C150.969 302.776 157.301 299.939 162.301 297.351C167.193 294.815 173.91 292.528 181.671 292.528C198.899 292.528 218.71 302.331 237.298 311.464L249.995 306.492C233.494 294.903 197.582 278.707 177.634 278.707C165.832 278.707 154.773 287.307 146.887 287.307C137.216 287.307 109.479 273.815 109.479 262.567C109.479 253.92 127.421 249.024 156.286 245.472C151.314 252.828 146.558 260.428 142.136 268.27L149.472 272.339C194.685 207.013 241.7 164.585 281.255 138.741C295.625 129.359 298.896 123.87 303.924 113.613C316.163 88.6285 327.733 69.4148 347.817 69.4148C357.215 69.4148 364.868 74.6636 370.129 81.1765L384.691 85.5225L369.948 95.4745L385.004 101.45C365.357 106.951 338.527 126.029 327.648 153.999C306.709 155.11 296.6 172.024 289.771 186.194C285.156 195.749 277.804 199.561 267.102 206.8L181.499 266.363L193.289 267.993L272.367 215.135C287.973 204.637 295.381 196.896 299.117 189.432C306.468 174.801 314.354 163.914 329.863 163.914C337.488 163.914 345.65 167.169 352.175 173.325L366.052 177.843L350.911 187.085L363.608 194.866C327.323 206.206 304.835 232.154 291.785 281.753L301.388 283.924C306.211 267.499 310.963 252.435 319.466 239.136C340.473 238.895 361.766 238.129 382.649 238.129C438.388 238.129 484.657 240.476 509.633 247.824L500.801 232.519C474.079 227.984 435.322 225.645 382.649 225.645C364.996 225.645 347.107 226.295 329.342 226.479C340.798 214.376 357.316 204.176 382.745 196.31L364.691 186.407L384.736 175.319L357.436 165.182C352.669 160.909 346.722 156.968 339.245 155.098C347.998 128.288 377.769 112.626 406.317 101.827L386.329 93.6807L406.498 82.6693L375.434 72.7735C367.328 63.271 359.523 58.925 347.556 58.925C318.748 58.925 306.645 83.8893 295.216 106.02C289.197 117.67 285.404 122.574 275.184 129.251C253.024 143.713 224.79 165.816 197.835 194.139C183.754 183.999 154.969 154.38 147.168 138.216C144.09 142.016 141.057 150.291 141.057 150.291C143.982 153.397 177.891 187.566 190.488 202.049C189.541 203.1 188.589 204.164 187.642 205.227C174.207 207.888 139.323 211.226 127.441 209.617L120.776 221.431C129.652 220.56 164.315 216.487 178.698 215.649C174.328 220.917 170.054 226.363 165.893 231.961C121.313 237.025 91.5256 246.139 91.5256 262.567C91.5256 265.28 92.6252 268.35 92.6252 271.251C92.6252 278.133 90.0288 280.669 85.1371 283.747C81.9388 285.754 81.7302 287.142 83.0905 289.044C84.4629 290.963 91.3451 301.119 91.3451 303.114C91.3451 306.424 88.0625 309.703 85.41 312.66C83.0905 315.245 83.1868 315.923 84.9967 319.181L97.9262 346.609L111.694 356.449Z" fill="#1D1D1D"/>
</g>
<mask id="mask16_72_4807" style="mask-type:luminance" maskUnits="userSpaceOnUse" x="-58" y="-19" width="2126" height="616">
<path d="M2067.64 -18.0703H-57.0703V596.091H2067.64V-18.0703Z" fill="white"/>
</mask>
<g mask="url(#mask16_72_4807)">
<path d="M663.627 203.827C660.769 206.816 658.269 210.002 656.167 213.401L648.98 203.329C672.969 171.442 736.288 156.486 773.439 153.858V136.751C768.728 138.2 763.644 139.837 758.933 140.948C752.267 142.542 746.156 144.034 740.975 143.902C735.766 143.77 731.577 141.691 729.627 138.922C724.639 131.819 729.269 121.089 745.59 111.048L732.717 100.366C722.781 113.219 712.985 127.413 703.029 135.896C693.988 143.597 684.51 147.437 676.845 141.731C672.736 138.665 671.183 137.253 670.774 129.243C671.335 117.461 678.494 99.4712 684.827 87.882L669.594 86.0963C666.873 103.841 659.59 118.966 651.789 131.454C642.061 147.02 629.517 157.951 616.616 166.888L608.152 158.569C618.566 152.429 631.604 142.453 640.577 128.701C650.99 112.73 659.425 92.9824 659.441 75.0327L703.515 79.1941C697.319 87.0473 687.098 104.953 683.222 117.818C681.203 124.524 681.311 129.861 683.743 131.687C688.414 135.178 696.601 129.604 704.542 121.101C715.738 109.098 726.717 90.992 731.541 84.5272L763.411 110.912C749.262 118.4 735.522 126.972 738.242 131.775C740.742 136.157 749.824 134.845 759.771 131.795C767.918 129.295 776.561 125.539 783.415 121.546V164.54C768.042 164.336 742.022 167.201 716.962 174.777C722.925 183.176 740.044 186.262 750.899 187.751L745.457 222.647C718.029 211.158 696.873 204.461 663.627 203.827L674.618 194.408C699.125 194.91 723.692 202.013 737.608 209.007L739.599 195.797C727.07 194.135 711.272 187.041 704.578 178.963C693.671 183.068 683.338 188.168 674.614 194.412L663.627 203.827Z" fill="#1D1D1D"/>
</g>
<mask id="mask17_72_4807" style="mask-type:luminance" maskUnits="userSpaceOnUse" x="-58" y="-19" width="2126" height="616">
<path d="M2067.64 -18.0703H-57.0703V596.091H2067.64V-18.0703Z" fill="white"/>
</mask>
<g mask="url(#mask17_72_4807)">
<path d="M532.283 314.691L542.491 292.704C531.801 280.084 519.766 264.12 509.63 247.82L500.798 232.515C480.384 193.81 487.816 175.327 476.921 158.296C467.92 144.223 424.179 152.979 416.924 154.492L429.577 133.589L404.641 135.575L425.773 110.511C428.08 107.248 429.179 104.267 431.623 95.5747C435.331 82.3723 446.724 59.8198 480.011 59.8198C516.953 59.8198 528.41 89.6597 544.526 102.617C562.797 117.313 586.77 137.947 608.146 158.565L616.61 166.884C627.533 178.024 638.689 189.468 648.978 203.333L656.165 213.405C700.652 278.209 755.893 402.084 780.348 458.794C782.711 464.291 784.401 469.861 785.857 474.087C769.26 464.957 750.977 453.621 732.181 440.647L721.218 432.939C714.432 428.075 707.602 423.007 700.804 417.778L689.524 408.937C682.778 403.544 676.089 398.01 669.479 392.328L691.719 521.599C693.356 529.204 699.881 527.94 705.142 521.238C710.403 514.541 712.397 512.731 710.403 503.867L689.524 408.937L700.8 417.778L720.804 498.429C722.739 505.716 725.82 508.028 734.348 508.389C742.867 508.746 744.681 505.488 742.867 499.878L721.214 432.935L732.177 440.643L752.659 500.785C757.924 516.17 752.659 517.98 743.413 517.98C734.151 517.98 725.812 515.809 720.744 519.067C715.66 522.33 709.299 531.226 701.687 539.007C694.953 545.882 685.174 544.076 683.196 531.198L658.617 382.789C642.597 368.411 627.36 353.327 613.732 337.917C607.741 335.377 600.995 332.271 595.02 329.49L585.758 325.176C582.476 323.668 580.044 322.584 579.069 322.307C572.267 330.445 565.742 339.547 558.13 346.059C554.077 349.519 551.316 351.493 545.337 351.493C543.483 351.493 541.203 351.457 539.073 350.269C536.793 348.989 534.646 346.429 532.271 342.801C530.473 340.044 527.808 336.525 525.473 332.62C520.625 324.474 515.372 314.273 510.649 306.011C505.348 296.737 500.798 289.787 500.168 288.631C499.22 286.865 496.636 284.698 496.636 284.698C494.052 288.908 492.142 297.058 492.142 301.532L482.896 298.406C484.12 292.303 486.564 284.429 487.924 280.621C487.924 277.363 484.256 273.017 481.263 273.017C477.045 273.017 472.687 277.632 470.52 286.46L461.138 290.533C462.226 276.279 467.113 260.665 481.267 260.665C492.695 260.665 499.77 269.357 505.212 277.495C510.661 285.641 528.479 309.943 532.283 314.691L539.357 323.655C540.581 329.225 542.969 332.464 544.125 334.25C546.569 338.05 549.293 337.781 552.961 334.386C554.635 332.841 560.024 328.463 565.245 323.017C569.779 318.298 574.189 312.576 575.959 309.679C581.14 312.002 590.811 316.609 598.6 320.04C565.188 278.968 533.23 229.124 519.369 195.223C513.627 181.222 524.835 176.523 530.248 190.339C544.935 227.812 587.921 294.064 619.479 328.816C655.952 368.989 722.875 427.116 766.399 450.463C760.079 438.179 751.756 420.527 742.137 400.089C689.187 370.201 635.675 315.317 610.727 268.169L621.702 269.441C644.909 310.409 700.371 365.069 733.124 380.952C703.16 317.508 664.182 237.138 633.769 202.554C596.044 159.665 554.827 126.498 535.14 109.235C515.742 92.2199 507.76 70.8593 479.814 70.8593C456.788 70.8593 444.673 87.4285 440.054 104.126C439.107 107.385 438.558 109.423 436.234 112.818L425.355 125.848L448.887 122.999L435.287 142.008C435.287 142.008 472.174 133.749 485.075 151.242C498.992 170.098 490.007 191.274 512.828 232.426C522.86 250.521 547.146 283.045 555.281 290.268L539.357 323.66L532.283 314.691Z" fill="#1D1D1D"/>
</g>
<mask id="mask18_72_4807" style="mask-type:luminance" maskUnits="userSpaceOnUse" x="-58" y="-19" width="2126" height="616">
<path d="M2067.64 -18.0703H-57.0703V596.091H2067.64V-18.0703Z" fill="white"/>
</mask>
<g mask="url(#mask18_72_4807)">
<path d="M169.75 320.405L164.172 316.605C167.29 314.005 173.458 309.916 179.545 307.375C182.691 306.055 186.279 305.409 188.875 305.409C195.127 305.409 200.513 308.017 205.774 310.814C214.084 315.241 223.426 320.429 230.601 320.429C233.322 320.429 235.946 319.795 239.024 319.795C246.099 319.795 252.901 322.965 256.801 322.965C259.165 322.965 260.786 320.851 262.339 318.62C266.24 313.013 271.641 308.856 278.511 305.987C285.903 302.901 294.804 301.665 304.475 301.665C312.087 301.665 319.395 302.753 323.203 303.567C323.203 303.567 317.392 310.562 315.935 312.107C308.255 312.107 293.596 311.858 284.197 315.63C278.415 317.961 276.368 321.332 276.368 326.108C276.368 333.034 284.101 335.722 292.729 338.335C297.813 339.88 303.516 340.253 308.323 340.253C314.242 340.253 325.607 338.022 336.831 335.562C350.366 332.58 362.963 329.037 366.63 327.677L371.538 336.457C356.466 341.549 341.052 346.369 326.734 349.274C318.64 350.911 310.935 351.935 304.065 351.935C292.58 351.935 280.104 347.127 269.871 342.247C261.232 338.134 253.511 334.081 246.613 334.081C238.864 334.081 231.568 336.746 224.397 340.835C220.882 342.841 210.288 350.129 200.85 353.837C193.61 356.686 187.703 358.267 180.368 358.267C173.831 358.267 169.926 357.36 166.548 354.715L177.908 347.769C179.365 349.234 181.989 349.495 183.622 349.495C185.256 349.495 187.21 349.29 191.66 347.428C194.2 346.365 197.924 344.077 200.095 342.673C204.574 339.779 206.087 338.09 207.844 336.706C211.291 333.993 212.555 330.393 208.161 326.477C206.115 324.635 203.96 322.769 201.183 321.091C197.266 318.724 194.421 316.428 187.306 316.428C178.915 316.42 173.008 318.716 169.75 320.405Z" fill="#1D1D1D"/>
</g>
<mask id="mask19_72_4807" style="mask-type:luminance" maskUnits="userSpaceOnUse" x="-58" y="-19" width="2126" height="616">
<path d="M2067.64 -18.0703H-57.0703V596.091H2067.64V-18.0703Z" fill="white"/>
</mask>
<g mask="url(#mask19_72_4807)">
<path d="M328.102 324.884C328.102 324.884 321.34 323.03 318.98 322.845C323.583 316.633 329.546 311.468 334.217 308.322C343.451 302.106 353.11 298.679 367.725 297.805C371.71 297.564 379.804 296.789 384.322 296.986C388.404 297.171 395.298 297.439 401.634 298.615C406.128 299.45 410.318 300.702 413.793 301.24C415.924 301.577 423.3 301.472 425.856 301.063C436.201 299.434 448.621 295.453 455.162 291.894L457.883 301.805C443.91 308.936 428.123 315.79 413.673 315.79C406.321 315.79 398.492 315.249 391.209 314.554C378.375 313.326 367.248 311.629 363.431 311.629C353.022 311.629 338.062 316.448 328.102 324.884Z" fill="#1D1D1D"/>
</g>
<mask id="mask20_72_4807" style="mask-type:luminance" maskUnits="userSpaceOnUse" x="-58" y="-19" width="2126" height="616">
<path d="M2067.64 -18.0703H-57.0703V596.091H2067.64V-18.0703Z" fill="white"/>
</mask>
<g mask="url(#mask20_72_4807)">
<path d="M317.799 380.081L304.652 374.078C322.871 364.872 350.716 355.638 362.149 353.833C373.566 352.019 386.632 350.666 394.16 348.13C397.607 356.822 404.409 366.112 414.204 366.112C417.792 366.112 423.671 363.407 429.566 360.819C436.203 357.898 442.864 354.703 446.311 353.167C450.035 351.517 462.154 346.208 472.399 341.662C476.328 339.916 487.086 334.808 487.704 334.462L494.603 338.17C492.54 347.215 489.093 358.339 485.22 366.293C483.696 369.403 482.183 371.987 480.549 373.833C477.54 377.212 472.692 381.678 466.4 386.148C459.502 391.044 451.083 396.052 442.166 401.165C435.216 405.15 428.233 409.203 421.147 412.453L417.479 405.804C428.402 399.628 439.518 391.819 449.257 384.595C453.872 381.181 458.35 377.729 461.54 374.82C463.916 372.661 465.401 370.863 466.581 369.118C469.482 364.864 474.193 356.541 475.65 352.565C471.569 354.551 456.155 361.798 449.257 365.41C441.48 369.491 428.855 375.912 421.781 379.242C416.215 381.875 411.255 383.303 407.683 383.303C399.782 383.303 396.182 377.629 394.248 374.194C389.26 365.318 383.915 364.499 369.862 364.322C353.533 364.114 331.125 370.847 317.799 380.081Z" fill="#1D1D1D"/>
</g>
<mask id="mask21_72_4807" style="mask-type:luminance" maskUnits="userSpaceOnUse" x="-58" y="-19" width="2126" height="616">
<path d="M2067.64 -18.0703H-57.0703V596.091H2067.64V-18.0703Z" fill="white"/>
</mask>
<g mask="url(#mask21_72_4807)">
<path d="M394.489 339.137C394.489 339.137 392.567 331.38 391.656 328.579C391.656 328.579 393.936 327.825 396.921 327.825C401.825 327.825 413.916 329.185 418.928 329.185C437.821 329.185 444.799 323.262 450.337 318.262C455.064 313.997 459.94 310.542 472.801 310.542C484.133 310.542 497.143 315.088 500.855 316.902L500.044 327.191C494.511 324.141 486.898 322.059 480.181 322.059C475.498 322.059 471.276 322.428 468.298 323.961C464.948 325.686 462.925 328.295 459.779 330.859C456.44 333.58 451.878 336.236 445.903 338.443C439.911 340.646 432.524 342.123 421.46 342.123C406.893 342.127 399.008 339.707 394.489 339.137Z" fill="#1D1D1D"/>
</g>
<mask id="mask22_72_4807" style="mask-type:luminance" maskUnits="userSpaceOnUse" x="-58" y="-19" width="2126" height="616">
<path d="M2067.64 -18.0703H-57.0703V596.091H2067.64V-18.0703Z" fill="white"/>
</mask>
<g mask="url(#mask22_72_4807)">
<path d="M274.812 416.919L283.508 413.32C291.49 416.398 303.031 419.901 311.069 419.901C315.892 419.901 319.889 418.155 323.16 416.707C325.716 415.575 354.745 401.361 369.156 396.149C373.73 394.483 378.373 393.564 380.64 393.564C384.088 393.564 384.28 395.109 385.271 396.69C387.992 401.032 409.397 431.554 411.58 433.91C429.754 428.324 448.37 420.178 459.101 409.873C470.297 399.13 479.57 386.662 488.555 377.023C492.018 373.299 496.304 369.924 498.419 368.809C507.705 363.877 536.598 363.443 548.745 363.993L541.533 374.166C520.141 374.166 508.162 376.365 502.777 380.418C500.498 382.123 497.046 385.579 493.776 389.844C486.468 399.351 478.483 412.369 475.285 414.905C481.549 419.247 488.391 423.047 499.274 423.047C517.42 423.047 530.406 411.711 537.52 405.33L543.62 408.958C539.126 414.796 533.977 420.76 527.396 425.226C520.101 430.17 510.939 433.364 505.498 434.865C494.972 432.871 471.797 428.216 466.356 427.128C446.311 435.266 413.671 448.436 402.691 451.739C401.11 452.221 398.542 452.606 395.316 452.919C386.632 453.392 374.581 453.332 363.606 453.188C355.817 453.083 348.437 453.14 344.741 452.465L335.07 442.373C343.601 444.002 346.912 444.504 354.894 444.504C373.754 444.504 385.901 441.362 389.898 440.334C393.265 439.476 393.815 437.517 392.812 434.5C391.218 429.656 388.43 425.089 384.184 420.178C381.905 417.537 376.764 412.979 374.661 411.55C372.065 409.792 369.537 409.343 362.406 411.763C355.809 414.002 335.339 425.061 326.495 429.752C322.153 432.052 318.746 432.734 310.929 430.9C302.618 428.954 282.766 421.735 274.812 416.919Z" fill="#1D1D1D"/>
</g>
<mask id="mask23_72_4807" style="mask-type:luminance" maskUnits="userSpaceOnUse" x="-58" y="-19" width="2126" height="616">
<path d="M2067.64 -18.0703H-57.0703V596.091H2067.64V-18.0703Z" fill="white"/>
</mask>
<g mask="url(#mask23_72_4807)">
<path d="M331.58 190.103C335.68 190.103 339.004 186.779 339.004 182.679C339.004 178.579 335.68 175.255 331.58 175.255C327.48 175.255 324.156 178.579 324.156 182.679C324.156 186.779 327.48 190.103 331.58 190.103Z" fill="#1D1D1D"/>
</g>
</g>
<defs>
<clipPath id="clip0_72_4807">
<rect width="2000" height="578.114" fill="white"/>
</clipPath>
</defs>
</svg>
