<svg width="2000" height="1000" viewBox="0 0 2000 1000" fill="none" xmlns="http://www.w3.org/2000/svg">
<g clip-path="url(#clip0_72_1299)">
<path fill-rule="evenodd" clip-rule="evenodd" d="M450.704 1000H1553.63L2000 500L1553.63 0H450.704L0 500L450.704 1000ZM1527.63 948H472.373L71.506 498L474.54 52H1527.63L1930.66 504L1527.63 946V948ZM472.373 490V666H411.701V276H530.878C563.38 276 587.216 284 608.884 302C626.219 322 637.053 346 637.053 378C637.053 398 632.719 418 619.718 434C611.051 450 598.05 460 580.715 468C589.382 470 598.05 478 606.717 486L617.551 524L634.886 666H574.215L561.213 530C559.047 518 554.713 508 548.212 502C541.712 496 535.211 492 520.043 492H476.706V490H472.373ZM472.373 326V438H528.711C541.712 438 556.88 436 561.213 426C572.048 416 574.215 400 574.215 382C574.215 362 567.714 348 561.213 338C554.713 330 541.712 326 528.711 326H472.373ZM834.236 658C821.235 666 801.734 670 777.898 670C754.063 670 738.895 664 721.56 654C704.225 646 691.224 630 682.557 614C671.723 598 669.556 576 669.556 552V500C669.556 474 671.723 454 682.557 436C699.892 402 736.728 382 777.898 382C799.567 382 816.901 388 834.236 398C851.571 408 864.572 422 873.239 438C884.074 456 886.241 476 886.241 500V554C886.241 580 884.074 600 873.239 616C864.572 636 849.404 652 834.236 658ZM738.895 606C749.729 616 760.563 622 777.898 622C795.233 622 806.067 616 816.901 606C825.569 594 829.902 578 829.902 554V498C832.069 480 825.569 464 816.901 450C806.067 440 795.233 434 777.898 434C760.563 434 749.729 440 738.895 450C728.061 464 723.727 482 725.894 498V556C725.894 576 730.227 592 738.895 606ZM1113.76 648C1096.42 664 1072.59 674 1044.42 674C1011.92 674 983.749 662 964.247 640C944.745 616 933.911 584 936.078 552V500C933.911 468 942.579 438 964.247 412C985.915 390 1011.92 378 1046.59 378C1074.76 378 1098.59 386 1115.93 404C1133.26 416 1144.1 440 1148.43 468L1092.09 480C1085.59 444 1070.42 428 1042.25 428C1024.92 428 1014.08 434 1003.25 444C994.583 456 990.249 472 990.249 492V550C990.249 570 996.75 586 1003.25 598C1014.08 608 1024.92 614 1042.25 614C1055.25 614 1068.26 612 1074.76 602C1083.42 594 1087.76 582 1092.09 564L1148.43 576C1144.1 610 1133.26 634 1113.76 648ZM1250.27 482V666H1193.93V276H1250.27V410C1256.77 402 1263.27 398 1278.44 390C1291.44 384 1304.44 382 1317.44 382C1345.61 382 1365.11 390 1378.11 408C1391.12 420 1399.78 444 1399.78 472V666H1343.45V482C1343.45 466 1336.94 454 1330.44 444C1321.78 436 1310.94 432 1297.94 432C1284.94 432 1269.77 438 1265.44 444C1254.6 456 1248.1 472 1252.44 488V482H1250.27ZM1627.3 412C1644.64 432 1655.47 464 1655.47 496V536H1499.46V560C1499.46 580 1505.96 596 1512.46 608C1523.29 618 1534.13 624 1549.3 624C1562.3 624 1573.13 622 1581.8 612C1590.47 604 1594.8 594 1599.13 578L1648.97 588C1646.8 614 1635.97 634 1618.63 650C1599.13 666 1577.46 674 1549.3 674C1516.79 674 1492.96 664 1471.29 640C1451.79 620 1443.12 588 1443.12 552V500C1443.12 474 1445.29 456 1456.12 436C1464.79 420 1477.79 406 1492.96 396C1510.29 388 1529.79 384 1549.3 384C1581.8 384 1605.63 394 1627.3 414V412ZM1588.3 446C1577.46 434 1566.63 428 1549.3 428C1536.29 428 1521.13 434 1516.79 446C1505.96 456 1503.79 472 1503.79 492V500H1601.3V490C1601.3 474 1596.97 460 1588.3 446Z" fill="#1D1D1D"/>
</g>
<defs>
<clipPath id="clip0_72_1299">
<rect width="2000" height="1000" fill="white"/>
</clipPath>
</defs>
</svg>
