<svg width="2000" height="694" viewBox="0 0 2000 694" fill="none" xmlns="http://www.w3.org/2000/svg">
<g clip-path="url(#clip0_72_5091)">
<path d="M880.919 638.329H827.298C825.209 638.329 824.513 636.25 824.513 635.557V474.068C825.209 471.296 825.209 467.831 824.513 465.058C821.727 449.811 807.103 440.107 792.479 441.494C777.159 444.266 767.409 458.821 768.802 473.375V675.755C768.802 684.072 775.07 691.003 784.123 691.696H880.919C881.616 691.696 883.008 691.696 883.705 691.696C898.329 691.003 908.774 678.528 908.078 663.973C907.382 648.032 895.543 637.636 880.919 638.329ZM685.933 455.355L541.783 648.032C538.301 652.884 536.212 658.428 536.212 664.666C536.212 672.983 539.694 681.993 548.05 686.152C560.585 694.469 575.905 691.696 584.958 680.607L612.813 643.181H680.362V664.666C681.058 679.914 693.593 691.696 708.217 690.31C723.538 690.31 733.983 677.835 733.983 664.666V473.375C733.983 465.058 730.501 457.435 724.93 452.583C713.788 441.494 695.682 442.88 685.933 455.355ZM678.969 589.12H653.9C653.203 589.12 651.811 588.427 651.811 587.041V586.348L678.969 549.614C678.969 550.308 678.969 589.12 678.969 589.12ZM606.546 474.068C606.546 459.514 594.707 448.424 581.476 448.424C574.513 448.424 566.852 451.197 562.674 455.355L501.393 518.426C500.696 519.812 499.304 519.812 498.607 519.812C497.911 519.812 496.518 519.812 496.518 519.119L435.237 455.355C431.058 451.197 423.398 447.038 416.435 447.038C401.811 447.038 391.365 458.821 391.365 471.989C391.365 478.227 394.15 485.158 397.632 490.009L472.841 575.259L473.538 664.666C473.538 679.221 485.376 690.31 499.304 690.31C513.231 690.31 525.07 678.528 525.07 664.666L527.159 575.952L600.279 490.702C604.457 485.851 606.546 479.613 606.546 474.068ZM291.086 447.038C223.538 447.038 169.22 501.792 169.22 568.328C169.22 634.864 224.234 689.617 291.086 689.617C357.939 689.617 412.953 634.864 412.953 568.328C413.649 502.485 358.635 447.731 291.086 447.038ZM291.086 634.171C254.178 634.171 225.627 605.754 225.627 569.021C225.627 532.287 254.178 503.871 291.086 503.871C327.994 503.871 356.546 532.287 356.546 569.021C356.546 605.754 327.994 634.171 291.086 634.171ZM1580.78 441.494C1567.55 442.187 1556.41 453.276 1556.41 465.751V579.417C1556.41 580.11 1555.71 581.496 1554.32 581.496C1552.92 581.496 1553.62 581.496 1553.62 580.803L1487.47 463.672C1477.72 445.652 1454.04 440.107 1437.33 451.197C1427.58 457.434 1419.92 469.217 1419.22 480.999V666.745C1419.92 681.993 1433.84 692.389 1447.08 691.696C1460.31 691.003 1471.45 679.914 1472.14 666.745V553.773C1472.14 553.08 1472.84 551.694 1474.23 551.694C1474.93 551.694 1474.93 551.694 1474.93 552.387L1543.18 672.29C1552.23 689.617 1573.82 694.469 1590.53 685.459C1602.37 679.221 1608.64 667.438 1608.64 655.656V467.138C1607.24 452.583 1596.1 440.801 1580.78 441.494ZM126.045 591.893C147.632 578.724 162.256 555.159 160.864 530.208C160.864 530.208 160.864 530.208 160.864 529.515C161.56 485.851 126.045 449.117 81.4763 448.424C59.8886 446.345 37.6045 453.969 22.2841 469.217C5.57103 484.465 0 505.95 0 529.515L3.48189 664.666C3.48189 679.221 15.3203 690.31 29.2479 690.31C43.1755 690.31 55.7103 678.528 55.7103 664.666L56.4067 600.209C56.4067 598.13 57.1031 597.437 59.1922 597.437C59.1922 597.437 59.8886 597.437 61.2813 597.437L125.348 684.072C129.526 688.231 135.097 690.31 142.758 690.31C157.382 690.31 167.827 678.528 168.524 665.359C168.524 661.894 167.827 658.428 165.738 653.577L126.045 591.893ZM80.0836 554.466C77.9944 554.466 77.298 554.466 75.9053 554.466C60.585 553.773 50.8357 539.911 51.532 526.743C52.2284 511.495 66.156 501.792 79.3872 502.485C81.4763 502.485 82.1727 502.485 83.5655 502.485C98.8858 503.178 108.635 517.04 107.939 530.208C107.242 544.763 93.3148 557.238 80.0836 554.466ZM1166.43 609.913C1162.95 609.913 1158.08 610.606 1153.9 612.685L1132.31 627.24C1122.56 633.477 1110.03 636.943 1097.49 636.943C1059.89 634.864 1032.03 602.982 1033.43 566.942C1035.52 532.287 1061.98 505.257 1097.49 503.178C1110.03 503.178 1121.87 506.643 1132.31 512.881L1153.2 527.436C1156.69 529.515 1160.17 530.208 1165.74 530.208C1180.36 530.208 1191.5 518.426 1191.5 504.564C1191.5 499.019 1189.41 492.089 1185.24 487.237C1164.35 462.979 1133.7 449.118 1100.97 449.118C1033.43 449.118 979.109 503.871 979.109 570.407C979.109 634.864 1029.25 688.231 1094.01 691.696C1128.83 691.696 1161.56 677.142 1185.93 652.191C1189.42 648.032 1192.2 642.488 1191.5 634.864C1193.59 621.695 1180.36 609.913 1166.43 609.913ZM1665.74 440.8C1649.72 440.8 1637.88 453.969 1637.88 468.524V664.666C1637.88 680.607 1651.11 692.389 1665.74 692.389C1681.75 692.389 1693.59 679.221 1693.59 664.666V468.524C1693.59 453.276 1681.75 440.8 1665.74 440.8ZM1256.96 453.969C1251.39 448.424 1243.73 444.959 1235.38 444.959C1219.36 444.959 1207.52 451.89 1207.52 468.524V664.666C1207.52 679.914 1220.06 690.31 1234.68 690.31C1249.3 690.31 1261.84 678.528 1262.53 664.666V643.181H1330.08L1357.94 680.607C1362.12 686.845 1371.17 690.31 1379.53 690.31C1394.85 690.31 1405.29 677.835 1405.29 664.666C1405.29 659.122 1403.2 652.884 1399.72 648.725L1256.96 453.969ZM1289.69 587.734C1289.69 588.427 1289 589.813 1287.6 589.813H1262.53V549.614L1289.69 587.041C1290.39 586.348 1290.39 586.348 1289.69 587.734ZM1885.79 441.494C1872.56 442.187 1861.42 453.276 1861.42 465.751V579.417C1861.42 580.11 1860.72 581.496 1859.33 581.496C1857.94 581.496 1858.64 581.496 1857.24 580.803L1791.78 463.672C1782.03 445.652 1758.36 440.107 1741.64 451.197C1731.89 457.434 1724.23 469.217 1723.54 480.999V666.745C1723.54 681.993 1736.07 693.776 1750.7 693.776C1765.32 693.776 1777.86 681.3 1777.86 666.745V553.773C1777.86 553.08 1778.55 551.694 1779.94 551.694C1780.64 551.694 1780.64 551.694 1780.64 552.387L1848.89 672.29C1857.94 689.617 1879.53 694.469 1896.24 685.459C1908.08 679.221 1914.35 667.438 1914.35 655.656V467.138C1912.95 452.583 1900.42 440.801 1885.79 441.494ZM1983.29 464.365C1983.29 463.672 1983.29 463.672 1983.29 462.286C1983.29 455.355 1977.72 453.276 1971.45 453.276H1963.09C1960.31 453.276 1959.61 455.355 1959.61 456.048V480.306C1959.61 483.079 1960.31 483.772 1963.09 483.772C1965.88 483.772 1966.57 481.692 1966.57 480.306V471.296H1968.66L1972.84 480.306C1973.54 482.385 1974.93 483.772 1977.02 483.772C1979.8 483.772 1980.5 483.079 1980.5 480.999C1980.5 480.306 1980.5 480.306 1980.5 478.92L1974.93 470.603C1979.8 471.989 1983.29 467.831 1983.29 464.365ZM1972.14 465.751H1966.57V458.821H1972.14C1974.93 458.821 1976.32 459.514 1976.32 462.286C1976.32 465.058 1974.93 465.751 1972.14 465.751ZM1971.45 440.107C1955.43 440.107 1942.9 453.276 1942.9 468.524C1942.9 483.772 1956.13 496.94 1971.45 496.94C1986.77 496.94 2000 483.772 2000 468.524C1999.3 453.276 1986.77 440.107 1971.45 440.107ZM1971.45 490.009C1958.91 490.009 1949.86 480.999 1949.86 468.524C1949.86 456.048 1958.91 447.038 1971.45 447.038C1983.98 447.038 1993.04 456.048 1993.04 468.524C1993.04 480.306 1983.29 490.009 1971.45 490.009Z" fill="#1D1D1D"/>
<path d="M1192.2 316.739C1134.4 274.461 1048.75 249.51 959.61 249.51C870.473 249.51 783.426 274.461 727.019 316.739C721.448 320.204 718.662 326.442 718.662 334.066C718.662 346.541 727.715 355.551 740.25 355.551C744.428 355.551 749.303 353.472 753.481 351.393C791.782 322.977 866.991 292.481 961.002 292.481C1055.01 292.481 1128.83 322.977 1167.83 351.393L1168.52 352.086C1177.58 358.324 1192.2 356.244 1198.47 346.541C1204.04 336.145 1201.95 322.977 1192.2 316.739ZM959.61 300.798C876.74 300.798 798.746 325.056 749.999 365.255C749.999 365.255 749.999 365.255 749.303 365.255C743.732 370.799 743.036 379.809 747.214 386.047C750 389.512 753.481 391.592 759.052 391.592C762.534 391.592 765.32 390.899 768.105 388.126C811.281 352.086 883.008 329.907 958.913 329.907C1034.82 329.907 1105.15 351.393 1149.72 388.126C1155.99 393.671 1165.74 392.285 1170.61 386.047C1176.18 379.809 1174.79 370.106 1168.52 365.255C1119.78 325.749 1041.09 300.798 959.61 300.798ZM692.2 145.547C698.467 119.903 683.147 93.5662 655.988 85.9422C652.506 85.2492 647.632 83.863 643.454 83.863C616.295 83.863 594.707 105.349 594.707 132.379C594.707 159.409 616.295 180.895 643.454 180.895C667.827 182.281 686.629 167.033 692.2 145.547ZM959.61 221.093C986.768 221.093 1008.36 199.608 1008.36 172.578C1008.36 145.547 986.768 124.062 959.61 124.062C932.451 124.062 910.863 145.547 910.863 172.578C910.863 199.608 931.754 221.093 959.61 221.093ZM959.61 97.7247C986.768 97.7247 1008.36 76.2391 1008.36 49.2089C1008.36 22.1786 986.768 0 959.61 0C932.451 0 910.863 21.4856 910.863 48.5158C910.167 76.2391 931.754 97.7247 959.61 97.7247ZM816.155 141.389C790.389 148.32 775.069 176.043 782.033 202.38C787.604 223.173 807.103 237.034 828.69 238.42H829.387C832.869 238.42 837.743 237.727 841.921 236.341C867.688 229.41 883.008 202.38 876.74 176.736C871.169 155.251 851.671 140.003 829.387 140.003C823.816 139.31 820.334 140.696 816.155 141.389ZM754.874 251.589C761.142 225.945 745.821 198.222 718.662 191.984C715.181 191.291 710.306 189.905 706.128 189.905C697.771 189.905 688.718 192.677 681.058 196.142C669.22 202.38 661.559 214.163 658.774 225.945C655.292 239.113 656.685 251.589 664.345 263.371C672.701 278.619 688.718 286.936 706.824 287.629C715.181 287.629 724.93 285.55 731.894 281.392C743.036 274.461 752.089 264.064 754.874 251.589ZM1077.3 234.955C1081.48 235.648 1085.65 237.034 1090.53 237.034C1117.69 237.034 1139.28 214.856 1139.28 188.518C1139.28 166.34 1123.95 147.627 1103.06 142.082C1098.89 141.389 1094.71 140.003 1089.83 140.003C1062.67 140.003 1041.09 162.181 1041.09 189.212C1040.39 210.004 1055.71 230.103 1077.3 234.955ZM1110.03 117.131C1113.51 117.824 1118.38 119.21 1123.26 119.21C1150.42 119.21 1172.01 97.0316 1172.01 70.6944C1172.01 48.5158 1156.68 29.8026 1135.79 24.2579C1131.62 23.5648 1127.44 22.1786 1122.56 22.1786C1095.4 22.1786 1073.82 44.3573 1073.82 71.3875C1073.82 91.4869 1089.14 110.893 1110.03 117.131ZM1237.46 196.835C1230.5 192.677 1221.45 190.598 1213.09 190.598C1185.93 190.598 1164.34 212.083 1164.34 239.114C1164.34 242.579 1165.04 247.43 1166.43 251.589C1169.22 264.064 1178.27 275.154 1188.72 281.392C1212.39 295.946 1242.34 286.936 1256.27 263.371C1262.53 251.589 1264.62 239.113 1261.84 225.945C1256.27 214.856 1247.91 203.766 1237.46 196.835ZM1322.42 121.289C1319.64 108.814 1310.58 97.7246 1300.14 91.4869C1276.46 76.9322 1246.52 85.9422 1232.59 109.507C1226.32 121.289 1224.23 133.765 1227.02 146.934C1229.8 159.409 1238.86 170.498 1249.3 176.736C1272.98 191.291 1302.92 182.974 1316.85 159.409C1324.51 147.627 1326.6 133.072 1322.42 121.289ZM797.353 119.21C801.532 119.21 806.406 118.517 810.584 117.131C836.35 110.2 851.671 82.4768 845.403 57.5259C839.832 36.0403 820.334 21.4856 798.746 21.4856C794.568 21.4856 790.389 22.1786 785.515 23.5648C759.749 30.4956 744.428 58.2189 750.696 83.1699C755.571 103.962 774.373 119.21 797.353 119.21Z" fill="#1D1D1D"/>
</g>
<defs>
<clipPath id="clip0_72_5091">
<rect width="2000" height="693.083" fill="white"/>
</clipPath>
</defs>
</svg>
