<svg width="2000" height="366" viewBox="0 0 2000 366" fill="none" xmlns="http://www.w3.org/2000/svg">
<g clip-path="url(#clip0_72_1307)">
<path d="M0 300.643L33.6763 248.357C49.579 279.729 69.6913 294.107 89.8036 294.107C108.513 294.107 119.738 280.382 119.738 258.814C119.738 236.593 109.448 226.789 80.9167 209.796C40.6922 188.229 11.6932 163.393 11.6932 105.225C11.6932 46.4036 48.1759 0 98.2226 0C134.705 0 160.43 18.9536 179.139 47.0571L146.866 102.611C136.109 83.6571 121.609 71.8929 102.432 71.8929C86.9972 71.8929 75.7718 83.6571 75.7718 100.65C75.7718 117.643 87.9326 126.793 117.399 143.786C159.963 166.661 184.284 196.071 184.284 255.546C184.284 322.864 146.399 365.346 94.0131 365.346C49.579 366 17.7736 338.55 0 300.643Z" fill="black"/>
<path d="M483.162 360.118L466.792 292.8H373.246L355.473 360.118H288.588L393.359 6.53564H449.954L553.321 360.118H483.162ZM390.552 226.789H449.954L437.325 176.464C431.712 152.936 426.1 130.061 420.955 107.186C415.342 130.061 409.729 152.936 403.649 175.811L390.552 226.789Z" fill="black"/>
<path d="M848.925 6.53564H910.197V360.118H859.215L731.525 137.25L732.461 360.118H670.721V6.53564H722.638L850.796 227.443L848.925 6.53564Z" fill="black"/>
<path d="M1064.08 360.118V6.53564H1137.04C1223.57 6.53564 1284.38 65.3571 1284.38 183C1284.38 300.643 1224.98 359.464 1141.25 359.464H1064.08V360.118ZM1126.29 283.65H1139.85C1188.03 283.65 1219.83 249.011 1219.83 183.654C1219.83 118.296 1192.7 85.6178 1139.85 85.6178H1126.29V283.65Z" fill="black"/>
<path d="M1400.84 183C1400.84 78.4286 1463.05 0.653564 1538.35 0.653564C1613.66 0.653564 1674.93 77.775 1674.93 183.654C1674.93 289.532 1612.72 366 1536.95 366C1461.65 366 1400.84 292.146 1400.84 183ZM1610.38 183.654C1610.38 125.486 1579.51 80.3893 1537.89 80.3893C1496.26 80.3893 1465.39 126.139 1465.39 183C1465.39 243.129 1498.13 285.611 1536.95 285.611C1578.58 285.611 1610.38 242.475 1610.38 183.654Z" fill="black"/>
<path d="M1777.83 359.464L1897.57 83.6571H1798.88V6.53564H2000V7.18922L1881.67 281.036H1993.45V359.464H1777.83Z" fill="black"/>
</g>
<defs>
<clipPath id="clip0_72_1307">
<rect width="2000" height="366" fill="white"/>
</clipPath>
</defs>
</svg>
